<svg id="avatar" xmlns="http://www.w3.org/2000/svg" version="1.1" width="600px" height="600px" xlink="http://www.w3.org/1999/xlink" xmlns:serif="http://www.serif.com/" style="fill-rule:evenodd;clip-rule:evenodd;overflow:hidden!important;" viewBox="0 0 600 600"><g id="svga-group-wrapper"><g id="svga-group-subwrapper"><rect id="SvgjsPath4173" x="298.609" y="303.066" width="2.7" height="2.7" style="fill:#a68469;fill-rule:nonzero;"/><g id="svga-group-humanbody-single"><path id="SvgjsPath2893" d="M557.584,573.816c-5.929,-12.814 -22.126,-31.803 -40.122,-37.049c-22.245,-6.488 -72.46,-14.332 -91.079,-18.692c-14.925,-3.5 -44.987,-30.494 -55.523,-39.555c-1.89,-1.62 -3.437,-4.966 -3.474,-7.452c-0.376,-29.333 11.326,-107.255 11.326,-107.255l-78.753,0l-78.751,0c0,0 11.701,77.919 11.321,107.255c-0.03,2.486 -1.585,5.832 -3.47,7.452c-10.535,9.061 -40.597,36.055 -55.523,39.555c-18.621,4.36 -68.836,12.471 -91.079,18.959c-18.001,5.243 -34.192,23.965 -40.122,36.779c-10.011,21.622 -12.376,60.75 -12.376,94.5l539.999,0c0,-33.747 -2.367,-72.875 -12.374,-94.497Z" style="fill:#f3d4cf;fill-rule:nonzero;"/><path id="SvgjsPath2894" d="M459.68,531.372c65.723,9.563 93.382,23.512 102.043,136.947l8.235,0c0,-33.75 -2.367,-72.879 -12.374,-94.5c-5.929,-12.814 -22.126,-31.804 -40.122,-37.05c-22.245,-6.488 -72.46,-14.331 -91.079,-18.692c-14.925,-3.499 -49.253,-32.586 -58.436,-44.145c9.072,12.701 34.536,42.134 56.846,49.842c10.673,3.688 19.561,5.368 34.887,7.598Zm-284.553,-7.598c22.31,-7.706 47.771,-37.141 56.846,-49.842c-9.18,11.556 -43.508,40.646 -58.437,44.145c-18.619,4.361 -68.833,12.472 -91.079,18.96c-17.995,5.243 -34.192,23.965 -40.122,36.779c-10.006,21.622 -12.374,60.75 -12.374,94.5l8.235,0c8.608,-112.709 36.383,-127.394 102.044,-136.947c15.323,-2.227 24.214,-3.907 34.887,-7.595Z" style="fill:#fff4f3;fill-rule:nonzero;"/><path id="SvgjsPath2895" d="M288.203,567.989c0,0 -13.7,-4.344 -19.124,-6.423c-28.213,-10.824 -119.867,-17.839 -119.867,-17.839c0,0 96.536,3.832 117.839,7.504c-1.237,-12.871 -8.146,-54.011 -8.146,-54.011c0,0 13.902,45.4 17.304,56.854c1.82,6.123 11.994,13.915 11.994,13.915Zm29.157,-3.623c-0.24,0.197 -0.516,0.454 -0.815,0.724c0.305,-0.23 0.58,-0.47 0.815,-0.724Zm-29.157,3.623c0,0 7.811,8.079 11.737,8.181c5.157,0.138 13.035,-7.827 16.607,-11.08c-3.415,2.584 -11.229,3.755 -14.337,3.877c-3.591,0.138 -14.007,-0.978 -14.007,-0.978Zm56.748,-20.301c-4.171,0.67 -11.842,2.13 -11.842,2.13l6.175,-40.203c-1.744,8.292 -12.08,43.77 -21.924,54.751c5.157,-4.363 16.627,-6.456 22.475,-7.301c27.637,-4.007 27.626,-4.004 110.867,-13.338c0,0 -78.492,-0.418 -105.751,3.961Z" style="fill:#e4b3ab;fill-rule:nonzero;"/><path id="SvgjsPath2896" d="M557.584,573.816c-5.929,-12.814 -22.126,-31.803 -40.122,-37.049c-22.245,-6.488 -72.46,-14.332 -91.079,-18.692c-14.925,-3.5 -44.987,-30.494 -55.523,-39.555c-1.89,-1.62 -3.437,-4.966 -3.474,-7.452c-0.376,-29.333 11.326,-107.255 11.326,-107.255l-78.753,0l-78.751,0c0,0 11.701,77.919 11.321,107.255c-0.03,2.486 -1.585,5.832 -3.47,7.452c-10.535,9.061 -40.597,36.055 -55.523,39.555c-18.621,4.36 -68.836,12.471 -91.079,18.959c-18.001,5.243 -34.192,23.965 -40.122,36.779c-10.011,21.622 -12.376,60.75 -12.376,94.5l539.999,0c0,-33.747 -2.367,-72.875 -12.374,-94.497Z" style="fill:none;stroke:#c5796d;stroke-width:4.05px;"/></g><path id="SvgjsPath4276" d="M233.854,474.656c18.844,12.258 44.029,23.798 66.11,23.798c21.135,0 46.831,-11.635 66.036,-23.947c-0.391,-1.155 -0.629,-2.327 -0.645,-3.412c-0.34,-26.668 9.032,-91.857 11.005,-105.254l-152.803,0c1.971,13.4 11.345,78.586 10.999,105.251c-0.013,1.118 -0.272,2.352 -0.702,3.564Z" style="fill:url(#_Linear1);fill-rule:nonzero;"/><g id="svga-group-clothes-single"><path id="SvgjsPath4168" d="M564.013,578.59c-28.291,-54.751 -82.763,-46.991 -134.914,-61.676c-1.263,9.679 -35.777,55.293 -43.974,81.164c-4.604,-3.842 -10.098,-8.977 -14.065,-13.678c-19.407,-22.796 -48.17,-96.552 -57.823,-38.956c2.098,-25.855 13.508,-31.552 29.352,-9.879c17.031,23.323 17.663,35.365 41.963,60.726c4.293,-17.823 13.587,-30.399 24.397,-46.181c10.463,-15.29 18.104,-22.186 19.222,-35.797c-3.902,-6.501 -2.968,-9.412 -9.272,-13.624c-39.569,-26.762 -11.319,-53.919 -47.185,-60.385c-0.281,3.234 -0.635,6.858 -0.932,9.582c7.671,3.947 9.966,19.31 -1.844,30.559c-18.768,20.603 -48.924,21.627 -56.786,53.252l-0.019,-0.003c-2.503,9.388 -4.506,23.757 -5.457,32.181l-6.628,67.225l-6.669,-66.034c-5.408,-49.569 -12.477,-54.418 -35.594,-69.736c-15.318,-10.152 -40.347,-25.469 -32.176,-42.786c0.931,-2.004 2.065,-3.235 3.472,-4.161c-0.405,-3.958 -0.643,-6.253 -0.956,-9.931c-29.611,1.261 -25.059,43.152 -47.482,58.563c-5.878,4.039 -8.875,7.774 -10.984,13.849c1.434,16.958 39.161,55.285 45.752,83.427c24.529,-25.899 24.718,-37.214 41.85,-60.639c14.755,-20.156 26.805,-18.088 29.341,9.188c-1.394,-8.195 -4.693,-20.739 -11.843,-20.739c-5.891,0 -12.031,8.689 -15.068,12.882c-17.008,23.43 -19.74,40.189 -44.947,61.109c-1.744,-5.241 -3.791,-10.506 -6.232,-15.406c-9.99,-20.18 -37.041,-60.899 -40.116,-64.846c-11.956,3.364 -30.178,7.09 -41.129,8.91c-71.561,11.909 -99.301,35.016 -109.85,143.183c262.445,-2.656 369.39,-1.501 564.867,-1.501c-2.444,-24.068 -7.247,-68.475 -18.271,-89.842Z" style="fill:#39557e;fill-rule:nonzero;"/><path id="SvgjsPath4169" d="M407.875,549.53c-9.345,13.645 -16.743,25.11 -21.352,39.476c5.311,-29.643 38.977,-57.71 35.332,-75.435c-1.56,-7.592 -28.42,-24.519 -29.81,-49.68c7.411,23.053 35.078,39.506 35.124,50.552c0.073,18.074 -0.467,7.579 -19.294,35.087Zm174.196,116.761c0.937,-23.441 -6.945,-69.077 -16.713,-88.015c-28.291,-54.75 -85.22,-47.765 -137.368,-62.451c-0.462,0.589 1.323,4.482 0.073,6.156c121.902,22.464 135.783,49.24 154.008,144.31Zm-401.42,-167.273c14.977,-12.412 19.467,-24.435 22.904,-35.13c-7.695,43.956 -19.2,27.332 -27.594,49.345c-4.801,12.591 32.408,46.989 37.438,75.771c-6.593,-11.273 -13.662,-25.146 -23.006,-38.791c-7.274,-10.63 -11.907,-20.35 -19.114,-28.531c-3.434,-18.125 3.659,-17.928 9.372,-22.664Zm-9.374,22.666c-1.251,-1.674 -2.414,-3.25 -2.876,-3.839c-52.148,14.683 -104.204,5.681 -132.492,60.434c-9.771,18.938 -14.65,57.68 -17.342,81.173c5.209,-28.547 12.971,-64.511 29.6,-86.208c28.199,-38.251 80.234,-45.633 123.11,-51.56Z" style="fill:#4e688d;fill-rule:nonzero;"/><path id="SvgjsPath4170" d="M353.548,497.174c-13.13,7.614 -24.249,15.087 -31.625,25.599c17.731,0.977 30.837,32.667 34.382,36.976c-33.299,-46.348 -45.9,-14.85 -49.95,14.666c1.166,-9.574 2.125,-25.909 4.015,-32.921c0.55,-2.789 1.142,-5.456 1.765,-7.8l0.019,0.003c7.863,-31.625 38.019,-32.649 56.787,-53.252c11.81,-11.249 9.512,-26.612 1.844,-30.559c0.294,-2.724 0.651,-6.348 0.931,-9.582c1.969,0.359 3.724,0.788 5.352,1.266c24.189,21.279 -7.018,48.219 -23.52,55.604Zm-110.384,0c13.133,7.614 29.192,16.637 36.547,26.236c-12.954,-2.357 -27.353,16.994 -34.554,34.093c31.05,-39.601 40.5,-17.099 50.401,16.915c-1.164,-9.571 -4.115,-25.909 -6.005,-32.921c-0.551,-2.789 -1.14,-5.457 -1.766,-7.8l-0.016,0.002c-7.863,-31.625 -36.942,-32.648 -55.709,-53.252c-11.81,-11.248 -9.78,-26.611 -2.109,-30.558c-0.294,-2.724 -0.648,-6.348 -0.929,-9.582c-1.968,0.359 -3.723,0.788 -5.351,1.266c-20.272,24.753 4.66,46.604 19.491,55.601Z" style="fill:#27446f;fill-rule:nonzero;"/><path id="SvgjsPath4171" d="M369.824,475.388c0.083,-15.393 -0.43,-6.853 1.128,-24.273c6.005,3.221 6.769,16.443 -1.128,24.273Zm-139.69,-1.456c-6.272,-8.208 -7.047,-16.591 -0.937,-22.923c1.463,13.657 0.721,12.01 0.937,22.923Z" style="fill:#18355f;fill-rule:nonzero;"/><path id="SvgjsPath4172" d="M428.543,512.086c-0.556,-9.563 -21.095,-17.539 -30.207,-38.273c-6.526,-14.769 -0.332,-31.681 -27.176,-34.4c-1.471,8.605 -2.775,27.521 -2.384,36.663c-13.603,14.642 -34.644,18.43 -48.019,34.174c-14.278,16.805 -20.466,53.19 -20.701,128.701l3.326,-2.163c0,0 3.705,-71.509 3.732,-71.72c8.326,-71.353 34.797,-54.499 62.043,-84.41c12.206,-11.696 9.29,-27.194 1.949,-30.95c0.319,-3.024 0.616,-6.018 0.878,-9.045c23.09,4.242 16.494,17.833 23.716,34.433c9.602,22.07 27.802,26.889 28.977,37.592c1.863,16.959 -8.257,24.157 -18.406,38.972c-15.965,23.109 -19.656,34.897 -21.873,44.031c-24.232,-25.45 -24.246,-36.606 -41.574,-60.312c-18.479,-25.288 -30.616,-13.43 -35.71,29.689c0.523,-7.087 10.178,-46.372 21.716,-39.558c13.335,7.771 26.435,40.792 42.014,59.093c4.156,4.922 9.507,9.86 14.432,13.991c9.199,-32.122 43.2,-66.056 44.301,-81.554c53.177,15.002 144.286,-0.391 152.391,151.101c-111.073,0.594 -231.7,-1.842 -564.219,1.495c4.82,-49.78 12.971,-98.571 42.452,-120.563c12.65,-9.469 27.316,-14.42 42.423,-17.571c21.052,-4.364 44.609,-7.169 65.483,-12.817c2.127,2.7 38.353,57.234 46.505,79.912c29.33,-22.958 41.058,-66.04 57.207,-73.478c11.243,-5.165 20.409,32.232 20.933,39.293c-4.401,-45.606 -18.765,-60.529 -45.965,-13.292c-13.402,23.285 -16.956,29.597 -31.212,44.577c-5.724,-24.284 -45.616,-70.076 -43.883,-82.788c1.712,-12.544 17.048,-9.08 27.265,-35.758c5.729,-14.958 4.46,-31.45 28.912,-36.329c0.264,3.151 0.585,6.264 0.907,9.412c-6.694,4.404 -8.395,19.2 2.3,29.544c9.631,11.029 27.011,17.323 38.489,26.125c13.529,10.441 18.881,21.133 23.187,58.509c0.095,0.815 3.699,72.743 3.699,72.743l3.599,1.801c-1.801,-75.149 -9.004,-120.333 -23.546,-132.996c-12.561,-11.205 -34.493,-18.35 -45.136,-30.859c0.324,-9.385 -1.526,-28.398 -2.681,-35.561c-24.325,2.478 -25.013,17.922 -30.23,31.406c-13.945,36.048 -27.361,25.723 -29.583,40.659c-0.208,1.396 0.113,2.447 0.45,4.304c-20.466,4.18 -46.008,6.92 -66.53,10.673c-30.626,5.592 -59.522,21.757 -72.698,52.521c-10.009,23.347 -12.908,64.937 -13.643,90.566c-0.029,0.183 -0.029,0.397 -0.029,0.58c0.41,0.033 0.847,0.033 1.258,0.033c352.282,3.745 562.812,-1.561 565.741,-1.561c1.032,-144.072 -77.719,-137.77 -154.88,-156.635Zm-58.449,-37.506c0.043,-7.919 0.283,-17.088 0.858,-23.465c4.315,3.078 7.666,13.308 -0.858,23.465Zm-140.098,-1.163c-7.16,-9.372 -4.32,-18.458 -1.069,-21.6c0.678,6.334 0.945,15.203 1.069,21.6Z" style="fill:#0c2850;fill-rule:nonzero;"/></g><g id="svga-group-head"><g id="svga-group-ears-left"><path id="SvgjsPath2906" d="M153.27,262.144c-4.009,-6.647 -17.083,-24.837 -27.083,-22.285c-8.133,2.084 -8.028,13.421 -8.657,20.128c-0.918,9.839 -1.252,26.978 1.418,33.934c2.568,6.677 10.692,19.58 15.735,24.502c6.208,6.035 16.119,25.267 17.34,27.262c1.92,3.154 5.77,7.668 11.677,7.312c8.292,-0.5 15.455,-8.335 16.106,-12.11c3.513,-20.493 -16.1,-61.446 -26.536,-78.743Z" style="fill:#f3d4cf;fill-rule:nonzero;stroke:#c5796d;stroke-width:4.05px;"/><path id="SvgjsPath2907" d="M149.299,302.636c-0.387,-1.52 0.018,-4.085 0.415,-6.558c0.359,-2.255 0.697,-4.385 0.492,-5.891c-0.781,-5.643 -5.171,-16.362 -8.035,-22.173c-3.303,-6.685 -8.638,-15.106 -15.334,-17.277c-2.765,-0.899 -4.587,0.175 -5.64,1.263c-0.778,0.8 -0.953,1.742 -0.699,1.855c0.256,0.111 0.829,-0.669 1.666,-1.401c0.685,-0.599 -1.372,-0.108 0,0c-0.554,2.808 -2.336,17.015 -1.107,27.386c0.966,8.16 2.835,14.253 3.41,15.166c0.083,0.961 0.224,1.904 0.432,2.816c2.705,11.907 20.298,27.478 24.391,31.914c0.756,0.818 1.55,1.304 1.745,1.104c0.194,-0.199 -0.273,-1.007 -1.024,-1.83c-4.044,-4.407 -21.521,-19.929 -24.135,-31.415c-2.773,-12.187 10.562,-30.259 12.687,-34.082c1.083,1.796 2.004,3.518 2.711,4.955c0.559,1.126 1.172,2.446 1.809,3.874c-1.25,1.993 -13.818,16.543 -10.622,28.191c1.183,4.296 10.32,9.833 13.854,11.348c1.944,0.837 2.673,2.084 3.521,3.526c0.983,1.685 0.089,6.019 3.321,7.396c0.659,0.28 1.253,0.394 1.779,0.394c0.913,0 1.604,-0.351 2.114,-0.767c0.054,0.732 0.052,1.671 0.025,2.541c-0.033,1.128 0.126,1.644 0.399,1.666c0.278,0.024 0.567,-0.47 0.602,-1.585c0.046,-1.377 0.038,-3.081 -0.208,-3.899c-0.726,-2.4 -2.937,-5.114 -5.284,-7.984c-2.305,-2.822 -2.686,-8.178 -3.285,-10.533Zm-24.924,-10.554c-6.34,-18.692 3.464,-35.718 4.887,-38.283c2.732,1.077 6.917,5.921 8.697,8.734c-1.296,2.249 -13.32,16.975 -13.584,29.549Zm29.168,29.786c-2.927,-1.247 -1.906,-5.356 -2.851,-6.976c-0.859,-1.464 -1.744,-2.976 -3.994,-3.942c-0.486,-0.211 -1.023,-0.53 -1.574,-0.897c-7.241,-16.402 0.791,-23.571 2.806,-25.037c0.618,2.003 1.077,3.842 1.285,5.319c0.183,1.35 -0.159,3.505 -0.489,5.584c-0.413,2.578 -0.837,5.248 -0.397,6.976c0.659,2.574 1.11,8.019 3.486,10.93c2.109,2.581 4.274,5.243 5.014,7.414c-0.319,0.432 -1.32,1.469 -3.286,0.629Z" style="fill:#c5796d;fill-rule:nonzero;"/></g><g id="svga-group-ears-right"><path id="SvgjsPath2908" d="M445.937,262.144c4.012,-6.647 17.085,-24.837 27.083,-22.285c8.133,2.084 8.027,13.421 8.659,20.128c0.918,9.839 1.25,26.978 -1.417,33.934c-2.568,6.677 -10.695,19.58 -15.736,24.502c-6.207,6.035 -16.122,25.267 -17.339,27.262c-1.92,3.154 -5.77,7.668 -11.68,7.312c-8.289,-0.5 -15.453,-8.335 -16.106,-12.11c-3.51,-20.493 16.106,-61.446 26.536,-78.743Z" style="fill:#f3d4cf;fill-rule:nonzero;stroke:#c5796d;stroke-width:4.05px;"/><path id="SvgjsPath2909" d="M446.628,313.172c-2.346,2.87 -4.558,5.583 -5.284,7.984c-0.248,0.82 -0.254,2.524 -0.211,3.898c0.038,1.115 0.327,1.61 0.608,1.585c0.275,-0.021 0.432,-0.537 0.399,-1.666c-0.027,-0.869 -0.032,-1.809 0.022,-2.54c0.51,0.415 1.202,0.766 2.114,0.766c0.527,0 1.123,-0.113 1.782,-0.394c3.227,-1.379 2.336,-5.713 3.318,-7.395c0.848,-1.442 1.577,-2.692 3.524,-3.526c3.534,-1.515 12.671,-7.05 13.854,-11.348c3.196,-11.648 -9.372,-26.201 -10.622,-28.191c0.632,-1.428 1.25,-2.749 1.803,-3.875c0.713,-1.436 1.631,-3.161 2.717,-4.954c2.125,3.823 15.457,21.892 12.687,34.082c-2.616,11.486 -20.091,27.008 -24.135,31.415c-0.754,0.823 -1.223,1.63 -1.029,1.83c0.2,0.2 0.991,-0.286 1.744,-1.104c4.093,-4.436 21.684,-20.007 24.389,-31.914c0.211,-0.913 0.354,-1.855 0.438,-2.816c0.569,-0.91 2.44,-7.004 3.407,-15.166c1.229,-10.371 -0.553,-24.578 -1.107,-27.386c1.372,-0.108 -0.686,-0.6 0,0c0.84,0.731 1.412,1.512 1.666,1.401c0.254,-0.113 0.078,-1.053 -0.697,-1.855c-1.055,-1.088 -2.878,-2.163 -5.643,-1.263c-6.696,2.17 -12.034,10.592 -15.336,17.277c-2.864,5.81 -7.252,16.529 -8.032,22.172c-0.205,1.507 0.132,3.637 0.491,5.892c0.394,2.473 0.802,5.038 0.416,6.558c-0.599,2.352 -0.977,7.708 -3.283,10.533Zm14.623,-50.639c1.782,-2.813 5.964,-7.654 8.697,-8.734c1.423,2.565 11.226,19.591 4.889,38.283c-0.264,-12.574 -12.287,-27.3 -13.586,-29.549Zm-18.868,58.701c0.738,-2.171 2.906,-4.833 5.014,-7.414c2.374,-2.911 2.827,-8.357 3.486,-10.93c0.437,-1.728 0.016,-4.398 -0.394,-6.977c-0.332,-2.079 -0.675,-4.233 -0.492,-5.583c0.206,-1.477 0.665,-3.316 1.283,-5.319c2.014,1.466 10.047,8.637 2.805,25.037c-0.548,0.367 -1.085,0.686 -1.577,0.896c-2.246,0.967 -3.132,2.479 -3.993,3.942c-0.945,1.62 0.078,5.732 -2.848,6.977c-1.966,0.845 -2.968,-0.192 -3.284,-0.629Z" style="fill:#c5796d;fill-rule:nonzero;"/></g><g id="svga-group-faceshape-single"><path id="SvgjsPath4273" d="M299.964,36.757c-90.769,0.143 -164.484,74.706 -164.344,166.571c0.025,14.588 1.901,28.736 5.406,42.211l0.002,0c0.033,0.146 22.521,55.296 28.251,89.654c6.426,38.545 28.247,81.626 44.015,96.622c16.34,15.541 54.759,39.641 86.667,39.641c30.421,0 70.324,-24.1 86.667,-39.641c15.768,-14.996 37.59,-58.077 44.016,-96.622c5.729,-34.358 28.22,-89.508 28.25,-89.654l0.005,0c3.505,-13.478 5.384,-27.623 5.406,-42.211c0.146,-91.865 -73.573,-166.428 -164.341,-166.571Z" style="fill:#f3d4cf;fill-rule:nonzero;"/><path id="SvgjsPath4274" d="M399.591,70.947c34.738,30.558 56.87,76.723 56.797,128.355c-0.024,14.588 -1.811,28.733 -5.146,42.212l-0.003,0c-0.029,0.145 -21.435,55.296 -26.889,89.653c-6.121,38.548 -26.889,81.629 -41.896,96.622c-15.554,15.544 -53.535,39.644 -82.49,39.644c-30.372,0 -66.938,-24.1 -82.49,-39.644c-15.007,-14.993 -35.775,-58.074 -41.894,-96.622c-5.454,-34.355 -26.859,-89.505 -26.889,-89.653l-0.003,0c-3.337,-13.479 -5.124,-27.624 -5.146,-42.212c-0.075,-51.629 22.054,-97.789 56.789,-128.35c-39.371,30.448 -64.792,78.413 -64.711,132.376c0.025,14.588 1.901,28.736 5.406,42.211l0.002,0c0.033,0.146 22.521,55.296 28.251,89.654c6.426,38.545 28.247,81.626 44.015,96.622c16.34,15.541 54.759,39.641 86.667,39.641c30.421,0 70.324,-24.1 86.667,-39.641c15.768,-14.996 37.59,-58.077 44.016,-96.622c5.729,-34.358 28.22,-89.508 28.25,-89.654l0.005,0c3.505,-13.478 5.384,-27.623 5.406,-42.211c0.086,-53.965 -25.337,-101.936 -64.714,-132.381Z" style="fill:#ebc3bd;fill-rule:nonzero;"/><path id="SvgjsPath4275" d="M299.964,36.757c-90.769,0.143 -164.484,74.706 -164.344,166.571c0.025,14.588 1.901,28.736 5.406,42.211l0.002,0c0.033,0.146 22.521,55.296 28.251,89.654c6.426,38.545 28.247,81.626 44.015,96.622c16.34,15.541 54.759,39.641 86.667,39.641c30.421,0 70.324,-24.1 86.667,-39.641c15.768,-14.996 37.59,-58.077 44.016,-96.622c5.729,-34.358 28.22,-89.508 28.25,-89.654l0.005,0c3.505,-13.478 5.384,-27.623 5.406,-42.211c0.146,-91.865 -73.573,-166.428 -164.341,-166.571Z" style="fill:none;stroke:#c5796d;stroke-width:4.05px;"/></g><path id="SvgjsPath4315" d="M300.877,417.613c-4.121,0 -8.095,-0.521 -10.53,-1.477c-0.694,-0.275 -1.037,-1.058 -0.765,-1.749c0.273,-0.694 1.053,-1.035 1.75,-0.765c4.493,1.764 15.809,1.826 20.801,-0.521c0.677,-0.316 1.479,-0.027 1.795,0.646c0.319,0.675 0.03,1.479 -0.645,1.795c-3.024,1.42 -7.806,2.071 -12.406,2.071Zm39.649,-22.899c1.075,-0.461 1.577,-1.706 1.115,-2.783c-0.462,-1.078 -1.714,-1.574 -2.784,-1.115c-31.498,13.478 -77.603,0.912 -78.062,0.788c-1.126,-0.313 -2.3,0.343 -2.614,1.474c-0.313,1.129 0.346,2.298 1.475,2.614c1.25,0.345 20.768,5.67 43.291,5.67c12.474,-0.003 25.861,-1.634 37.579,-6.648Z" style="fill:#c5796d;fill-rule:nonzero;"/><g id="svga-group-eyes-left-closed"><g id="svga-group-eyesfront-left"><path id="SvgjsPath4204" d="M175.027,261.48c-1.032,8.921 26.606,59.411 54.192,59.411c27.585,0 52.65,-14.288 52.65,-59.408c0,-48.03 -25.065,-59.403 -52.65,-59.403c-27.586,0 -49.07,15.136 -54.192,59.4Zm19.092,2.579l-0.27,-11.203c3.585,-10.662 52.76,-11.75 69.93,4.817c3.769,8.724 -1.105,14.788 -9.529,17.383c-8.891,-2.117 -13.416,2.859 -26.484,3.148c-21.754,0.478 -26.833,-1.669 -30.237,-7.123c-1.412,-2.262 -2.762,-5.205 -3.41,-7.022Z" style="fill:#f3d4cf;fill-rule:nonzero;"/><path id="SvgjsPath4205" d="M191.143,256.928c0.062,20.342 20.644,36.731 46.003,36.628c25.35,-0.116 45.859,-16.683 45.794,-37.025c-0.062,-20.339 -20.646,-36.733 -46.008,-36.628c-25.358,0.119 -45.856,16.683 -45.789,37.025Zm2.976,7.131l-0.27,-11.203c3.585,-10.662 52.76,-11.75 69.93,4.817c3.769,8.724 -1.105,14.788 -9.529,17.383c-8.891,-2.117 -13.416,2.859 -26.484,3.148c-21.754,0.478 -26.833,-1.669 -30.237,-7.123c-1.412,-2.262 -2.762,-5.205 -3.41,-7.022Z" style="fill:url(#_Radial2);fill-rule:nonzero;"/><path id="SvgjsPath4214" d="M271.514,253.637c-25.966,-15.555 -45.093,-16.546 -75.916,-14.564c25.728,-4.053 55.361,-1.113 75.916,14.564Z" style="fill:#c5796d;fill-rule:nonzero;"/><path id="SvgjsPath4215" d="M265.18,279.5c-8.748,-9.911 -70.047,-9.97 -74.064,-4.984l0,4.643c-2.757,-1.835 -2.827,-1.947 -4.004,-4.058l-5.927,0.889c0,0 7.414,-4.616 14.308,-5.221c59.902,-5.268 69.174,7.14 69.687,8.731Z" style="fill-rule:nonzero;"/></g></g><g id="svga-group-eyes-left" class="eye"><path id="SvgjsPath4179" d="M254.25,275.053c-8.891,-2.117 -13.416,2.859 -26.484,3.148c-21.754,0.478 -26.833,-1.668 -30.237,-7.122c-1.412,-2.26 -2.762,-5.206 -3.413,-7.023l-0.27,-11.202c3.585,-10.663 52.761,-11.751 69.93,4.816c0.775,1.799 1.169,3.475 1.255,5.041c-0.513,2.587 -1.382,5.071 -2.557,7.423c-1.906,2.187 -4.757,3.85 -8.224,4.919Z" style="fill:url(#_Radial3);fill-rule:nonzero;"/><g id="svga-group-eyesiris-left"><path id="SvgjsPath2926" d="M246.634,261.891c0,8.945 -7.255,16.2 -16.2,16.2c-8.946,0 -16.2,-7.255 -16.2,-16.2c0,-8.948 7.254,-16.2 16.2,-16.2c8.945,-0.003 16.2,7.252 16.2,16.2Z" style="fill:#4e60a3;fill-rule:nonzero;"/><path id="SvgjsPath2927" d="M228.619,245.869c-0.062,0.008 -0.127,0.016 -0.192,0.024c0.079,0.365 0.154,0.732 0.23,1.096c-0.016,-0.37 -0.024,-0.748 -0.038,-1.12Zm0.035,1.118c0.189,5.324 0.5,10.068 1.396,11.782c0.473,-1.879 -0.332,-6.561 -1.396,-11.782Zm1.399,11.785c-0.116,0.451 -0.292,0.759 -0.562,0.861c-0.27,0.103 -0.61,-0.016 -0.993,-0.278c0.11,0.451 0.1,0.802 -0.098,1.021c-0.194,0.219 -0.542,0.273 -1.007,0.21c0.305,0.351 0.462,0.673 0.395,0.954c-0.073,0.28 -0.362,0.491 -0.792,0.653c0.43,0.17 0.719,0.381 0.786,0.661c0.068,0.281 -0.089,0.603 -0.391,0.951c0.459,-0.057 0.812,0.003 1.001,0.221c0.192,0.219 0.203,0.573 0.095,1.024c0.381,-0.262 0.715,-0.376 0.985,-0.27c0.273,0.102 0.449,0.41 0.557,0.864c0.218,-0.411 0.461,-0.673 0.756,-0.702c0.28,-0.038 0.583,0.159 0.888,0.507c0.003,-0.464 0.1,-0.807 0.343,-0.972c0.237,-0.165 0.591,-0.132 1.023,0.035c-0.211,-0.41 -0.283,-0.758 -0.148,-1.018c0.135,-0.256 0.467,-0.394 0.928,-0.448c-0.38,-0.267 -0.613,-0.54 -0.607,-0.831c0,-0.292 0.227,-0.565 0.613,-0.827c-0.459,-0.056 -0.786,-0.194 -0.924,-0.451c-0.132,-0.256 -0.059,-0.607 0.157,-1.017c-0.437,0.162 -0.788,0.194 -1.026,0.029c-0.24,-0.164 -0.338,-0.507 -0.338,-0.972c-0.302,0.346 -0.604,0.538 -0.891,0.5c-0.291,-0.038 -0.537,-0.292 -0.75,-0.705Zm1.639,0.203c1.293,-1.445 2.756,-5.965 4.239,-11.081c-2.306,4.798 -4.237,9.142 -4.239,11.081Zm4.236,-11.081c0.162,-0.33 0.327,-0.664 0.481,-0.999c-0.057,-0.019 -0.114,-0.046 -0.17,-0.07c-0.103,0.359 -0.206,0.718 -0.311,1.069Zm-2.87,12.026c1.814,-0.681 5.214,-4.005 8.902,-7.844c-4.269,3.175 -8,6.126 -8.902,7.844Zm8.902,-7.844c0.27,-0.202 0.548,-0.405 0.823,-0.607c-0.037,-0.049 -0.081,-0.09 -0.113,-0.133c-0.235,0.243 -0.47,0.494 -0.71,0.74Zm-8.141,9.312c1.925,0.238 6.48,-1.126 11.535,-2.81c-5.26,0.831 -9.931,1.709 -11.535,2.81Zm11.535,-2.808c0.297,-0.043 0.607,-0.091 0.91,-0.14c-0.011,-0.051 -0.025,-0.103 -0.038,-0.154c-0.289,0.097 -0.586,0.197 -0.872,0.294Zm-11.537,4.463c1.593,1.113 6.258,2.017 11.507,2.871c-5.035,-1.71 -9.58,-3.1 -11.507,-2.871Zm11.51,2.871c0.256,0.089 0.515,0.18 0.769,0.264c0.014,-0.046 0.025,-0.089 0.033,-0.135c-0.262,-0.04 -0.535,-0.084 -0.802,-0.129Zm-12.288,-1.404c0.899,1.719 4.612,4.692 8.861,7.894c-3.669,-3.861 -7.044,-7.203 -8.861,-7.894Zm8.864,7.889c0.159,0.167 0.324,0.34 0.483,0.51c0.027,-0.032 0.052,-0.056 0.081,-0.086c-0.189,-0.141 -0.383,-0.284 -0.564,-0.424Zm-10.227,-6.953c-0.009,1.942 1.898,6.294 4.176,11.106c-1.455,-5.122 -2.889,-9.653 -4.176,-11.106Zm4.176,11.108c0.057,0.203 0.117,0.411 0.171,0.619c0.04,-0.017 0.067,-0.027 0.105,-0.038c-0.089,-0.195 -0.184,-0.394 -0.276,-0.581Zm-5.821,-10.913c-0.907,1.72 -1.244,6.453 -1.463,11.775c1.091,-5.211 1.925,-9.891 1.463,-11.775Zm-1.463,11.775c-0.046,0.202 -0.084,0.407 -0.127,0.615c0.038,0.008 0.067,0.008 0.105,0.014c0.006,-0.208 0.016,-0.424 0.022,-0.629Zm-0.078,-12.369c-1.61,1.099 -4.107,5.141 -6.772,9.747c3.386,-4.104 6.302,-7.863 6.772,-9.747Zm-6.772,9.747c-0.143,0.17 -0.292,0.351 -0.437,0.521c0.035,0.022 0.064,0.038 0.102,0.065c0.108,-0.195 0.224,-0.392 0.335,-0.586Zm5.678,-10.986c-1.933,0.224 -6.024,2.64 -10.525,5.478c4.909,-2.058 9.229,-4.026 10.525,-5.478Zm-10.527,5.483c-0.232,0.097 -0.47,0.195 -0.71,0.297c0.016,0.035 0.04,0.073 0.062,0.108c0.218,-0.132 0.434,-0.27 0.648,-0.405Zm10.13,-7.095c-1.812,-0.694 -6.558,-0.454 -11.866,-0.03c5.302,0.454 10.049,0.715 11.866,0.03Zm-11.866,-0.03c-0.289,-0.027 -0.586,-0.054 -0.872,-0.078c0,0.051 -0.006,0.102 0,0.151c0.294,-0.027 0.588,-0.051 0.872,-0.073Zm12.263,-1.574c-1.277,-1.455 -5.586,-3.448 -10.479,-5.538c4.48,2.862 8.557,5.303 10.479,5.538Zm-10.479,-5.538c-0.28,-0.181 -0.564,-0.362 -0.85,-0.543c-0.024,0.052 -0.051,0.103 -0.078,0.149c0.313,0.132 0.626,0.262 0.928,0.394Zm11.583,4.301c-0.456,-1.884 -3.35,-5.654 -6.709,-9.782c2.635,4.623 5.111,8.675 6.709,9.782Zm-6.709,-9.782c-0.181,-0.31 -0.357,-0.626 -0.537,-0.942c-0.052,0.035 -0.106,0.07 -0.152,0.105c0.227,0.278 0.465,0.559 0.689,0.837Z" style="fill:url(#_Radial4);fill-rule:nonzero;"/><path id="SvgjsPath2931" d="M232.826,245.923c-0.065,-0.008 -0.127,-0.019 -0.189,-0.027c-0.019,0.372 -0.043,0.748 -0.065,1.118c0.081,-0.362 0.17,-0.729 0.254,-1.091Zm-0.257,1.088c-1.193,5.189 -2.125,9.852 -1.698,11.745c0.942,-1.696 1.374,-6.426 1.698,-11.745Zm-1.701,11.745c-0.227,0.405 -0.475,0.656 -0.764,0.686c-0.286,0.027 -0.583,-0.173 -0.883,-0.527c-0.011,0.462 -0.113,0.802 -0.359,0.961c-0.243,0.16 -0.597,0.122 -1.026,-0.056c0.205,0.418 0.273,0.769 0.132,1.02c-0.143,0.254 -0.475,0.384 -0.931,0.427c0.37,0.273 0.594,0.551 0.586,0.842c-0.006,0.289 -0.24,0.559 -0.624,0.816c0.456,0.064 0.783,0.213 0.91,0.469c0.13,0.26 0.049,0.608 -0.173,1.013c0.435,-0.154 0.789,-0.176 1.024,-0.005c0.234,0.17 0.324,0.513 0.313,0.98c0.316,-0.338 0.618,-0.53 0.91,-0.484c0.283,0.038 0.523,0.305 0.729,0.724c0.121,-0.451 0.305,-0.753 0.583,-0.851c0.273,-0.097 0.607,0.027 0.98,0.3c-0.097,-0.451 -0.078,-0.807 0.119,-1.02c0.197,-0.214 0.553,-0.26 1.015,-0.195c-0.3,-0.356 -0.454,-0.678 -0.373,-0.958c0.076,-0.281 0.368,-0.486 0.808,-0.64c-0.432,-0.173 -0.71,-0.392 -0.778,-0.675c-0.062,-0.284 0.1,-0.602 0.416,-0.943c-0.465,0.044 -0.813,-0.016 -0.999,-0.237c-0.189,-0.222 -0.195,-0.578 -0.076,-1.023c-0.383,0.253 -0.723,0.361 -0.991,0.251c-0.278,-0.111 -0.445,-0.422 -0.548,-0.875Zm1.534,0.624c1.623,-1.064 4.204,-5.052 6.96,-9.607c-3.469,4.036 -6.455,7.73 -6.96,9.607Zm6.96,-9.61c0.241,-0.275 0.486,-0.556 0.724,-0.839c-0.051,-0.036 -0.097,-0.076 -0.148,-0.114c-0.192,0.321 -0.384,0.643 -0.576,0.953Zm-5.886,10.873c1.931,-0.189 6.075,-2.522 10.63,-5.273c-4.949,1.963 -9.315,3.848 -10.63,5.273Zm10.628,-5.276c0.316,-0.124 0.634,-0.248 0.955,-0.372c-0.027,-0.057 -0.056,-0.108 -0.075,-0.16c-0.292,0.179 -0.583,0.36 -0.88,0.532Zm-10.271,6.893c1.798,0.729 6.55,0.589 11.866,0.273c-5.294,-0.561 -10.033,-0.923 -11.866,-0.273Zm11.866,0.27c0.303,0.036 0.611,0.068 0.916,0.1c0,-0.054 0.002,-0.105 0.005,-0.156c-0.308,0.019 -0.618,0.038 -0.921,0.056Zm-12.295,1.329c1.247,1.488 5.524,3.567 10.373,5.748c-4.425,-2.956 -8.454,-5.473 -10.373,-5.748Zm10.37,5.748c0.224,0.154 0.451,0.308 0.675,0.454c0.025,-0.041 0.046,-0.081 0.068,-0.122c-0.243,-0.105 -0.497,-0.218 -0.743,-0.332Zm-11.504,-4.533c0.421,1.893 3.24,5.724 6.517,9.92c-2.546,-4.682 -4.941,-8.786 -6.517,-9.92Zm6.517,9.912c0.114,0.202 0.224,0.413 0.338,0.618c0.032,-0.024 0.065,-0.043 0.1,-0.065c-0.146,-0.184 -0.295,-0.373 -0.438,-0.553Zm-8.075,-9.361c-0.508,1.871 0.205,6.569 1.161,11.807c-0.084,-5.325 -0.295,-10.071 -1.161,-11.807Zm1.158,11.807c0.003,0.21 0.008,0.426 0.008,0.642c0.038,-0.005 0.073,-0.01 0.111,-0.01c-0.038,-0.208 -0.079,-0.424 -0.119,-0.632Zm-2.797,-12.048c-1.323,1.426 -2.873,5.911 -4.461,10.995c2.401,-4.75 4.42,-9.053 4.461,-10.995Zm-4.463,10.995c-0.095,0.183 -0.189,0.372 -0.281,0.561c0.032,0.017 0.062,0.025 0.097,0.041c0.059,-0.197 0.124,-0.405 0.184,-0.602Zm3.124,-11.967c-1.836,0.646 -5.298,3.905 -9.064,7.663c4.339,-3.089 8.124,-5.964 9.064,-7.663Zm-9.062,7.663c-0.181,0.127 -0.37,0.265 -0.553,0.391c0.027,0.03 0.054,0.054 0.078,0.087c0.154,-0.159 0.316,-0.316 0.475,-0.478Zm8.327,-9.145c-1.925,-0.281 -6.499,0.994 -11.586,2.57c5.279,-0.718 9.958,-1.501 11.586,-2.57Zm-11.586,2.576c-0.248,0.035 -0.504,0.065 -0.764,0.105c0.008,0.041 0.022,0.081 0.035,0.119c0.246,-0.07 0.489,-0.151 0.729,-0.224Zm11.621,-4.231c-1.571,-1.142 -6.218,-2.138 -11.453,-3.102c5.006,1.811 9.52,3.294 11.453,3.102Zm-11.453,-3.102c-0.273,-0.1 -0.554,-0.203 -0.824,-0.303c-0.013,0.052 -0.029,0.1 -0.04,0.146c0.294,0.051 0.583,0.105 0.864,0.157Zm12.255,1.652c-0.858,-1.736 -4.503,-4.776 -8.691,-8.062c3.585,3.928 6.893,7.341 8.691,8.062Zm-8.694,-8.059c-0.224,-0.246 -0.451,-0.495 -0.678,-0.743c-0.037,0.043 -0.078,0.084 -0.113,0.124c0.267,0.205 0.535,0.411 0.791,0.619Zm10.079,7.152c0.046,-1.939 -1.771,-6.329 -3.953,-11.184c1.35,5.147 2.695,9.702 3.953,11.184Zm-3.953,-11.184c-0.091,-0.345 -0.18,-0.699 -0.272,-1.05c-0.057,0.019 -0.116,0.041 -0.17,0.062c0.145,0.33 0.297,0.662 0.442,0.988Z" style="fill:url(#_Radial5);fill-rule:nonzero;"/><path id="SvgjsPath2935" d="M236.789,261.891c0,3.51 -2.843,6.353 -6.353,6.353c-3.507,0 -6.356,-2.843 -6.356,-6.353c0,-3.508 2.849,-6.356 6.356,-6.356c3.51,0 6.353,2.846 6.353,6.356Z" style="fill:#4e60a3;fill-rule:nonzero;"/><path id="SvgjsPath2936" d="M236.789,261.891c0,3.51 -2.843,6.353 -6.353,6.353c-3.507,0 -6.356,-2.843 -6.356,-6.353c0,-3.508 2.849,-6.356 6.356,-6.356c3.51,0 6.353,2.846 6.353,6.356Z" style="fill-opacity:0.9;fill-rule:nonzero;"/><path id="SvgjsPath2937" d="M221.569,269.31c1.213,-0.815 2.86,-0.486 3.672,0.724c0.813,1.212 0.492,2.859 -0.723,3.672c-1.215,0.818 -2.859,0.494 -3.672,-0.721c-0.813,-1.212 -0.489,-2.862 0.723,-3.675Z" style="fill:url(#_Linear6);fill-rule:nonzero;"/><path id="SvgjsPath2941" d="M235.456,261.005c-0.678,1.01 -2.617,0.894 -4.337,-0.259c-1.722,-1.153 -2.565,-2.911 -1.89,-3.918l0,-0.003c0.675,-1.009 2.617,-0.893 4.334,0.262c1.725,1.15 2.568,2.905 1.893,3.918l0,0Z" style="fill:url(#_Linear7);fill-rule:nonzero;"/><path id="SvgjsPath2945" d="M243.167,258.308c-1.534,2.357 -5.497,2.497 -8.843,0.316c-3.348,-2.182 -4.817,-5.859 -3.28,-8.217c1.533,-2.354 5.497,-2.494 8.842,-0.315c3.346,2.184 4.814,5.864 3.281,8.216Z" style="fill:url(#_Linear8);fill-rule:nonzero;"/></g><g id="svga-group-eyesfront-left1" serif:id="svga-group-eyesfront-left"><path id="SvgjsPath42041" serif:id="SvgjsPath4204" d="M175.027,261.48c-1.032,8.921 26.606,59.411 54.192,59.411c27.585,0 52.65,-14.288 52.65,-59.408c0,-48.03 -25.065,-59.403 -52.65,-59.403c-27.586,0 -49.07,15.136 -54.192,59.4Zm19.092,2.579l-0.27,-11.203c3.585,-10.662 52.76,-11.75 69.93,4.817c3.769,8.724 -1.105,14.788 -9.529,17.383c-8.891,-2.117 -13.416,2.859 -26.484,3.148c-21.754,0.478 -26.833,-1.669 -30.237,-7.123c-1.412,-2.262 -2.762,-5.205 -3.41,-7.022Z" style="fill:#f3d4cf;fill-rule:nonzero;"/><path id="SvgjsPath42051" serif:id="SvgjsPath4205" d="M191.143,256.928c0.062,20.342 20.644,36.731 46.003,36.628c25.35,-0.116 45.859,-16.683 45.794,-37.025c-0.062,-20.339 -20.646,-36.733 -46.008,-36.628c-25.358,0.119 -45.856,16.683 -45.789,37.025Zm2.976,7.131l-0.27,-11.203c3.585,-10.662 52.76,-11.75 69.93,4.817c3.769,8.724 -1.105,14.788 -9.529,17.383c-8.891,-2.117 -13.416,2.859 -26.484,3.148c-21.754,0.478 -26.833,-1.669 -30.237,-7.123c-1.412,-2.262 -2.762,-5.205 -3.41,-7.022Z" style="fill:url(#_Radial9);fill-rule:nonzero;"/><path id="SvgjsPath4210" d="M197.529,271.081c-1.412,-2.26 -2.762,-5.205 -3.413,-7.022l-0.27,-11.203c3.585,-10.662 52.761,-11.75 69.93,4.817c3.769,8.724 -1.104,14.788 -9.528,17.383c-8.892,-2.117 -13.417,2.859 -26.485,3.148c-21.748,0.478 -26.83,-1.671 -30.234,-7.123Z" style="fill:url(#_Radial10);fill-rule:nonzero;"/><path id="SvgjsPath42141" serif:id="SvgjsPath4214" d="M271.514,253.637c-25.966,-15.555 -45.093,-16.546 -75.916,-14.564c25.728,-4.053 55.361,-1.113 75.916,14.564Z" style="fill:#c5796d;fill-rule:nonzero;"/><path id="SvgjsPath42151" serif:id="SvgjsPath4215" d="M268.18,264.68c-8.748,-22.451 -70.047,-22.583 -74.064,-11.289l0,10.516c-2.757,-4.155 -2.827,-4.409 -4.004,-9.19l-5.927,2.014c0,0 7.414,-10.457 14.308,-11.829c59.902,-11.931 69.174,16.176 69.687,19.778Zm-9.415,11.17c-12.488,-5.346 -16.038,1.02 -31.22,1.336c-21.611,0.454 -25.831,-2.068 -30.038,-6.685c2.195,5.646 3.713,8.329 29.363,8.173c14.515,-0.089 22.445,-6.086 31.895,-2.824Z" style="fill-rule:nonzero;"/></g></g><g id="svga-group-eyes-right-closed"><g id="svga-group-eyesfront-right"><path id="SvgjsPath4225" d="M369.621,202.08c-27.586,0 -52.65,11.373 -52.65,59.403c0,45.12 25.064,59.408 52.65,59.408c27.586,0 53.706,-48.686 54.189,-59.411c2.014,-44.515 -26.603,-59.4 -54.189,-59.4Zm31.687,69.001c-3.404,5.454 -8.486,7.601 -30.237,7.123c-13.068,-0.289 -17.593,-5.265 -26.484,-3.148c-8.424,-2.595 -13.298,-8.659 -9.529,-17.383c17.17,-16.567 66.345,-15.479 69.93,-4.817l-0.27,11.203c-0.645,1.817 -1.995,4.76 -3.41,7.022Z" style="fill:#f3d4cf;fill-rule:nonzero;"/><path id="SvgjsPath4226" d="M361.905,219.903c-25.362,-0.108 -45.944,16.289 -46.006,36.628c-0.067,20.345 20.445,36.909 45.795,37.025c25.356,0.1 45.938,-16.289 46,-36.628c0.07,-20.342 -20.428,-36.906 -45.789,-37.025Zm39.403,51.178c-3.404,5.454 -8.486,7.601 -30.237,7.123c-13.068,-0.289 -17.593,-5.265 -26.484,-3.148c-8.424,-2.595 -13.298,-8.659 -9.529,-17.383c17.17,-16.567 66.345,-15.479 69.93,-4.817l-0.27,11.203c-0.645,1.817 -1.995,4.76 -3.41,7.022Z" style="fill:url(#_Radial11);fill-rule:nonzero;"/><path id="SvgjsPath4235" d="M327.326,253.637c25.966,-15.555 45.092,-16.546 75.916,-14.564c-25.729,-4.053 -55.361,-1.113 -75.916,14.564Z" style="fill:#c5796d;fill-rule:nonzero;"/><path id="SvgjsPath4236" d="M400.347,272.26c6.893,0.604 14.307,5.209 14.307,5.209l-5.926,-0.887c-1.18,2.105 -1.25,2.217 -4.004,4.047l0,-4.631c-4.015,-4.974 -65.313,-4.916 -74.064,4.971c0.513,-1.585 9.782,-13.963 69.687,-8.709Z" style="fill-rule:nonzero;"/></g></g><g id="svga-group-eyes-right" class="eye"><path id="SvgjsPath4187" d="M344.587,275.053c8.891,-2.117 13.416,2.859 26.484,3.148c21.754,0.478 26.833,-1.668 30.237,-7.122c1.412,-2.26 2.762,-5.206 3.413,-7.023l0.27,-11.202c-3.585,-10.663 -52.761,-11.751 -69.93,4.816c-0.775,1.799 -1.169,3.475 -1.255,5.041c0.513,2.587 1.382,5.071 2.557,7.423c1.906,2.187 4.757,3.85 8.224,4.919Z" style="fill:url(#_Radial12);fill-rule:nonzero;"/><g id="svga-group-eyesiris-right"><path id="SvgjsPath2949" d="M385.683,261.891c0,8.945 -7.254,16.2 -16.197,16.2c-8.945,0 -16.203,-7.255 -16.203,-16.2c0,-8.948 7.258,-16.2 16.203,-16.2c8.943,-0.003 16.197,7.252 16.197,16.2Z" style="fill:#4e60a3;fill-rule:nonzero;"/><path id="SvgjsPath2950" d="M367.669,245.869c-0.062,0.008 -0.127,0.016 -0.192,0.024c0.079,0.365 0.157,0.732 0.23,1.096c-0.016,-0.37 -0.024,-0.748 -0.038,-1.12Zm0.035,1.118c0.186,5.324 0.5,10.068 1.399,11.782c0.47,-1.879 -0.335,-6.561 -1.399,-11.782Zm1.396,11.785c-0.113,0.451 -0.292,0.759 -0.559,0.861c-0.273,0.103 -0.61,-0.016 -0.991,-0.278c0.108,0.451 0.097,0.802 -0.097,1.021c-0.194,0.219 -0.543,0.273 -1.004,0.21c0.302,0.351 0.461,0.673 0.394,0.954c-0.076,0.28 -0.362,0.491 -0.791,0.653c0.426,0.17 0.715,0.381 0.783,0.661c0.067,0.281 -0.087,0.603 -0.392,0.951c0.459,-0.057 0.81,0.003 0.999,0.221c0.192,0.219 0.203,0.573 0.095,1.024c0.38,-0.262 0.718,-0.376 0.985,-0.27c0.276,0.102 0.448,0.41 0.556,0.864c0.216,-0.411 0.465,-0.673 0.754,-0.702c0.283,-0.038 0.586,0.159 0.888,0.507c0.005,-0.464 0.1,-0.807 0.346,-0.972c0.235,-0.165 0.591,-0.132 1.023,0.035c-0.211,-0.41 -0.281,-0.758 -0.151,-1.018c0.137,-0.256 0.47,-0.394 0.931,-0.448c-0.38,-0.267 -0.615,-0.54 -0.607,-0.831c-0.003,-0.292 0.227,-0.565 0.613,-0.827c-0.462,-0.056 -0.786,-0.194 -0.924,-0.451c-0.135,-0.256 -0.059,-0.607 0.154,-1.017c-0.435,0.162 -0.786,0.194 -1.026,0.029c-0.24,-0.164 -0.335,-0.507 -0.337,-0.972c-0.3,0.346 -0.605,0.538 -0.891,0.5c-0.289,-0.038 -0.535,-0.292 -0.751,-0.705Zm1.642,0.203c1.293,-1.445 2.756,-5.965 4.236,-11.081c-2.303,4.798 -4.231,9.142 -4.236,11.081Zm4.236,-11.081c0.162,-0.33 0.327,-0.664 0.483,-0.999c-0.056,-0.019 -0.113,-0.046 -0.17,-0.07c-0.105,0.359 -0.208,0.718 -0.313,1.069Zm-2.87,12.026c1.817,-0.681 5.216,-4.005 8.904,-7.844c-4.271,3.175 -8,6.126 -8.904,7.844Zm8.904,-7.844c0.27,-0.202 0.546,-0.405 0.824,-0.607c-0.041,-0.049 -0.081,-0.09 -0.113,-0.133c-0.238,0.243 -0.473,0.494 -0.711,0.74Zm-8.14,9.312c1.925,0.238 6.477,-1.126 11.532,-2.81c-5.26,0.831 -9.931,1.709 -11.532,2.81Zm11.532,-2.808c0.297,-0.043 0.607,-0.091 0.91,-0.14c-0.014,-0.051 -0.025,-0.103 -0.038,-0.154c-0.289,0.097 -0.586,0.197 -0.872,0.294Zm-11.537,4.463c1.595,1.113 6.258,2.017 11.51,2.871c-5.039,-1.71 -9.583,-3.1 -11.51,-2.871Zm11.51,2.871c0.256,0.089 0.513,0.18 0.769,0.264c0.014,-0.046 0.024,-0.089 0.035,-0.135c-0.264,-0.04 -0.54,-0.084 -0.804,-0.129Zm-12.288,-1.404c0.896,1.719 4.612,4.692 8.861,7.894c-3.666,-3.861 -7.044,-7.203 -8.861,-7.894Zm8.864,7.889c0.159,0.167 0.321,0.34 0.481,0.51c0.027,-0.032 0.054,-0.056 0.083,-0.086c-0.189,-0.141 -0.383,-0.284 -0.564,-0.424Zm-10.225,-6.953c-0.008,1.942 1.896,6.294 4.177,11.106c-1.458,-5.122 -2.892,-9.653 -4.177,-11.106Zm4.177,11.108c0.057,0.203 0.116,0.411 0.17,0.619c0.041,-0.017 0.07,-0.027 0.105,-0.038c-0.091,-0.195 -0.186,-0.394 -0.275,-0.581Zm-5.824,-10.913c-0.907,1.72 -1.245,6.453 -1.463,11.775c1.091,-5.211 1.925,-9.891 1.463,-11.775Zm-1.463,11.775c-0.046,0.202 -0.084,0.407 -0.127,0.615c0.038,0.008 0.065,0.008 0.105,0.014c0.006,-0.208 0.016,-0.424 0.022,-0.629Zm-0.081,-12.369c-1.609,1.099 -4.107,5.141 -6.772,9.747c3.389,-4.104 6.302,-7.863 6.772,-9.747Zm-6.772,9.747c-0.14,0.17 -0.289,0.351 -0.435,0.521c0.036,0.022 0.065,0.038 0.1,0.065c0.111,-0.195 0.227,-0.392 0.335,-0.586Zm5.678,-10.986c-1.933,0.224 -6.021,2.64 -10.522,5.478c4.909,-2.058 9.229,-4.026 10.522,-5.478Zm-10.522,5.483c-0.235,0.097 -0.472,0.195 -0.71,0.297c0.016,0.035 0.038,0.073 0.062,0.108c0.216,-0.132 0.432,-0.27 0.648,-0.405Zm10.131,-7.095c-1.815,-0.694 -6.561,-0.454 -11.869,-0.03c5.305,0.454 10.049,0.715 11.869,0.03Zm-11.869,-0.03c-0.287,-0.027 -0.586,-0.054 -0.87,-0.078c-0.003,0.051 -0.008,0.102 -0.003,0.151c0.295,-0.027 0.589,-0.051 0.873,-0.073Zm12.266,-1.574c-1.28,-1.455 -5.587,-3.448 -10.482,-5.538c4.48,2.862 8.557,5.303 10.482,5.538Zm-10.482,-5.538c-0.281,-0.181 -0.567,-0.362 -0.85,-0.543c-0.025,0.052 -0.052,0.103 -0.076,0.149c0.311,0.132 0.627,0.262 0.926,0.394Zm11.583,4.301c-0.456,-1.884 -3.35,-5.654 -6.709,-9.782c2.635,4.623 5.111,8.675 6.709,9.782Zm-6.709,-9.782c-0.181,-0.31 -0.359,-0.626 -0.535,-0.942c-0.051,0.035 -0.105,0.07 -0.154,0.105c0.23,0.278 0.465,0.559 0.689,0.837Z" style="fill:url(#_Radial13);fill-rule:nonzero;"/><path id="SvgjsPath2954" d="M371.876,245.923c-0.065,-0.008 -0.127,-0.019 -0.189,-0.027c-0.022,0.372 -0.044,0.748 -0.065,1.118c0.078,-0.362 0.167,-0.729 0.254,-1.091Zm-0.257,1.088c-1.196,5.189 -2.125,9.852 -1.701,11.745c0.945,-1.696 1.377,-6.426 1.701,-11.745Zm-1.701,11.745c-0.227,0.405 -0.478,0.656 -0.764,0.686c-0.286,0.027 -0.583,-0.173 -0.883,-0.527c-0.011,0.462 -0.113,0.802 -0.359,0.961c-0.243,0.16 -0.597,0.122 -1.026,-0.056c0.203,0.418 0.273,0.769 0.132,1.02c-0.145,0.254 -0.475,0.384 -0.934,0.427c0.373,0.273 0.594,0.551 0.586,0.842c-0.005,0.289 -0.24,0.559 -0.621,0.816c0.459,0.064 0.78,0.213 0.91,0.469c0.13,0.26 0.049,0.608 -0.173,1.013c0.438,-0.154 0.791,-0.176 1.026,-0.005c0.235,0.17 0.324,0.513 0.311,0.98c0.316,-0.338 0.618,-0.53 0.91,-0.484c0.283,0.038 0.523,0.305 0.729,0.724c0.124,-0.451 0.305,-0.753 0.583,-0.851c0.272,-0.097 0.61,0.027 0.98,0.3c-0.095,-0.451 -0.076,-0.807 0.121,-1.02c0.195,-0.214 0.551,-0.26 1.013,-0.195c-0.297,-0.356 -0.454,-0.678 -0.373,-0.958c0.073,-0.281 0.367,-0.486 0.808,-0.64c-0.43,-0.173 -0.711,-0.392 -0.778,-0.675c-0.059,-0.284 0.103,-0.602 0.416,-0.943c-0.465,0.044 -0.816,-0.016 -0.999,-0.237c-0.189,-0.222 -0.195,-0.578 -0.073,-1.023c-0.386,0.253 -0.726,0.361 -0.994,0.251c-0.275,-0.111 -0.448,-0.422 -0.548,-0.875Zm1.534,0.624c1.622,-1.064 4.204,-5.052 6.96,-9.607c-3.469,4.036 -6.455,7.73 -6.96,9.607Zm6.96,-9.61c0.241,-0.275 0.486,-0.556 0.727,-0.839c-0.054,-0.036 -0.1,-0.076 -0.152,-0.114c-0.191,0.321 -0.383,0.643 -0.575,0.953Zm-5.886,10.873c1.931,-0.189 6.073,-2.522 10.63,-5.273c-4.949,1.963 -9.315,3.848 -10.63,5.273Zm10.628,-5.276c0.313,-0.124 0.631,-0.248 0.955,-0.372c-0.027,-0.057 -0.056,-0.108 -0.075,-0.16c-0.292,0.179 -0.583,0.36 -0.88,0.532Zm-10.271,6.893c1.798,0.729 6.55,0.589 11.869,0.273c-5.3,-0.561 -10.036,-0.923 -11.869,-0.273Zm11.866,0.27c0.3,0.036 0.61,0.068 0.916,0.1c0.002,-0.054 0.002,-0.105 0.005,-0.156c-0.305,0.019 -0.618,0.038 -0.921,0.056Zm-12.296,1.329c1.251,1.488 5.525,3.567 10.374,5.748c-4.425,-2.956 -8.454,-5.473 -10.374,-5.748Zm10.371,5.748c0.222,0.154 0.451,0.308 0.675,0.454c0.024,-0.041 0.049,-0.081 0.065,-0.122c-0.24,-0.105 -0.494,-0.218 -0.74,-0.332Zm-11.502,-4.533c0.419,1.893 3.237,5.724 6.515,9.92c-2.546,-4.682 -4.938,-8.786 -6.515,-9.92Zm6.518,9.912c0.111,0.202 0.221,0.413 0.335,0.618c0.032,-0.024 0.062,-0.043 0.1,-0.065c-0.146,-0.184 -0.297,-0.373 -0.435,-0.553Zm-8.078,-9.361c-0.508,1.871 0.205,6.569 1.161,11.807c-0.084,-5.325 -0.295,-10.071 -1.161,-11.807Zm1.158,11.807c0.003,0.21 0.008,0.426 0.008,0.642c0.04,-0.005 0.07,-0.01 0.108,-0.01c-0.035,-0.208 -0.076,-0.424 -0.116,-0.632Zm-2.8,-12.048c-1.32,1.426 -2.873,5.911 -4.46,10.995c2.403,-4.75 4.419,-9.053 4.46,-10.995Zm-4.46,10.995c-0.095,0.183 -0.187,0.372 -0.281,0.561c0.032,0.017 0.059,0.025 0.094,0.041c0.062,-0.197 0.127,-0.405 0.187,-0.602Zm3.123,-11.967c-1.836,0.646 -5.294,3.905 -9.061,7.663c4.336,-3.089 8.122,-5.964 9.061,-7.663Zm-9.061,7.663c-0.181,0.127 -0.372,0.265 -0.553,0.391c0.027,0.03 0.054,0.054 0.078,0.087c0.154,-0.159 0.319,-0.316 0.475,-0.478Zm8.327,-9.145c-1.925,-0.281 -6.496,0.994 -11.583,2.57c5.276,-0.718 9.958,-1.501 11.583,-2.57Zm-11.583,2.576c-0.251,0.035 -0.508,0.065 -0.764,0.105c0.011,0.041 0.022,0.081 0.035,0.119c0.243,-0.07 0.486,-0.151 0.729,-0.224Zm11.618,-4.231c-1.571,-1.142 -6.218,-2.138 -11.453,-3.102c5.006,1.811 9.52,3.294 11.453,3.102Zm-11.453,-3.102c-0.273,-0.1 -0.554,-0.203 -0.824,-0.303c-0.016,0.052 -0.029,0.1 -0.04,0.146c0.291,0.051 0.583,0.105 0.864,0.157Zm12.255,1.652c-0.859,-1.736 -4.506,-4.776 -8.694,-8.062c3.588,3.928 6.896,7.341 8.694,8.062Zm-8.694,-8.059c-0.224,-0.246 -0.451,-0.495 -0.678,-0.743c-0.04,0.043 -0.075,0.084 -0.116,0.124c0.268,0.205 0.54,0.411 0.794,0.619Zm10.079,7.152c0.046,-1.939 -1.771,-6.329 -3.953,-11.184c1.353,5.147 2.695,9.702 3.953,11.184Zm-3.953,-11.184c-0.091,-0.345 -0.181,-0.699 -0.275,-1.05c-0.057,0.019 -0.116,0.041 -0.17,0.062c0.148,0.33 0.3,0.662 0.445,0.988Z" style="fill:url(#_Radial14);fill-rule:nonzero;"/><path id="SvgjsPath2958" d="M375.839,261.891c0,3.51 -2.846,6.353 -6.353,6.353c-3.51,0 -6.356,-2.843 -6.356,-6.353c0,-3.508 2.849,-6.356 6.356,-6.356c3.513,0 6.353,2.846 6.353,6.356Z" style="fill:#4e60a3;fill-rule:nonzero;"/><path id="SvgjsPath2959" d="M375.839,261.891c0,3.51 -2.846,6.353 -6.353,6.353c-3.51,0 -6.356,-2.843 -6.356,-6.353c0,-3.508 2.849,-6.356 6.356,-6.356c3.513,0 6.353,2.846 6.353,6.356Z" style="fill-opacity:0.9;fill-rule:nonzero;"/><path id="SvgjsPath2960" d="M360.622,269.31c1.21,-0.815 2.859,-0.486 3.669,0.724c0.816,1.212 0.494,2.859 -0.723,3.672c-1.215,0.818 -2.86,0.494 -3.67,-0.721c-0.815,-1.212 -0.491,-2.862 0.724,-3.675Z" style="fill:url(#_Linear15);fill-rule:nonzero;"/><path id="SvgjsPath2964" d="M374.503,261.005c-0.678,1.01 -2.617,0.894 -4.334,-0.259c-1.722,-1.153 -2.565,-2.911 -1.89,-3.918l0.003,-0.003c0.675,-1.009 2.616,-0.893 4.333,0.262c1.723,1.15 2.565,2.905 1.888,3.918l0,0Z" style="fill:url(#_Linear16);fill-rule:nonzero;"/><path id="SvgjsPath2968" d="M382.219,258.308c-1.536,2.357 -5.497,2.497 -8.845,0.316c-3.345,-2.182 -4.817,-5.859 -3.28,-8.217c1.533,-2.354 5.494,-2.494 8.842,-0.315c3.345,2.184 4.814,5.864 3.283,8.216Z" style="fill:url(#_Linear17);fill-rule:nonzero;"/></g><g id="svga-group-eyesfront-right1" serif:id="svga-group-eyesfront-right"><path id="SvgjsPath42251" serif:id="SvgjsPath4225" d="M369.621,202.08c-27.586,0 -52.65,11.373 -52.65,59.403c0,45.12 25.064,59.408 52.65,59.408c27.586,0 53.706,-48.686 54.189,-59.411c2.014,-44.515 -26.603,-59.4 -54.189,-59.4Zm31.687,69.001c-3.404,5.454 -8.486,7.601 -30.237,7.123c-13.068,-0.289 -17.593,-5.265 -26.484,-3.148c-8.424,-2.595 -13.298,-8.659 -9.529,-17.383c17.17,-16.567 66.345,-15.479 69.93,-4.817l-0.27,11.203c-0.645,1.817 -1.995,4.76 -3.41,7.022Z" style="fill:#f3d4cf;fill-rule:nonzero;"/><path id="SvgjsPath42261" serif:id="SvgjsPath4226" d="M361.905,219.903c-25.362,-0.108 -45.944,16.289 -46.006,36.628c-0.067,20.345 20.445,36.909 45.795,37.025c25.356,0.1 45.938,-16.289 46,-36.628c0.07,-20.342 -20.428,-36.906 -45.789,-37.025Zm39.403,51.178c-3.404,5.454 -8.486,7.601 -30.237,7.123c-13.068,-0.289 -17.593,-5.265 -26.484,-3.148c-8.424,-2.595 -13.298,-8.659 -9.529,-17.383c17.17,-16.567 66.345,-15.479 69.93,-4.817l-0.27,11.203c-0.645,1.817 -1.995,4.76 -3.41,7.022Z" style="fill:url(#_Radial18);fill-rule:nonzero;"/><path id="SvgjsPath4231" d="M401.308,271.081c1.412,-2.26 2.762,-5.205 3.413,-7.022l0.27,-11.203c-3.585,-10.662 -52.761,-11.75 -69.93,4.817c-3.769,8.724 1.104,14.788 9.528,17.383c8.892,-2.117 13.417,2.859 26.485,3.148c21.751,0.478 26.83,-1.671 30.234,-7.123Z" style="fill:url(#_Radial19);fill-rule:nonzero;"/><path id="SvgjsPath42351" serif:id="SvgjsPath4235" d="M327.326,253.637c25.966,-15.555 45.092,-16.546 75.916,-14.564c-25.729,-4.053 -55.361,-1.113 -75.916,14.564Z" style="fill:#c5796d;fill-rule:nonzero;"/><path id="SvgjsPath42361" serif:id="SvgjsPath4236" d="M400.347,244.899c6.893,1.372 14.307,11.829 14.307,11.829l-5.926,-2.014c-1.18,4.782 -1.25,5.035 -4.004,9.191l0,-10.517c-4.015,-11.294 -65.313,-11.162 -74.064,11.289c0.513,-3.599 9.782,-31.706 69.687,-19.778Zm-28.38,33.777c25.65,0.157 27.171,-2.529 29.363,-8.172c-4.207,4.617 -8.427,7.138 -30.038,6.685c-15.179,-0.316 -18.732,-6.685 -31.22,-1.337c9.45,-3.264 17.383,2.733 31.895,2.824Z" style="fill-rule:nonzero;"/></g></g><g id="svga-group-facehighlight-single"><path id="SvgjsPath2885" d="M410.658,342.145c0.095,61.08 -49.388,110.684 -110.532,110.768c-61.133,0.1 -110.776,-49.337 -110.87,-110.43c-0.095,-61.074 49.388,-110.873 110.53,-110.97c61.136,-0.095 110.783,49.545 110.872,110.632Z" style="fill:url(#_Radial20);fill-rule:nonzero;"/><path id="SvgjsPath2889" d="M401.208,180.213c0,55.92 -45.33,101.25 -101.247,101.25c-55.919,0 -101.252,-45.33 -101.252,-101.25c0,-55.92 45.333,-101.25 101.252,-101.25c55.917,0 101.247,45.33 101.247,101.25Z" style="fill:url(#_Radial21);fill-rule:nonzero;"/></g><path id="SvgjsPath4265" d="M175.759,234.726c26.875,-26.93 45.254,-15.971 82.59,-8.813c2.281,0.437 17.064,4.155 14.337,9.366c-1.304,2.495 -5.497,2.198 -7.838,2.155c-36.958,-0.691 -54.929,-26.987 -89.089,-2.708Z" style="fill:#6b4e40;fill-rule:nonzero;"/><path id="SvgjsPath4266" d="M424.158,234.726c-26.873,-26.93 -45.254,-15.971 -82.59,-8.813c-2.284,0.437 -17.064,4.155 -14.34,9.366c1.305,2.495 5.498,2.198 7.839,2.155c36.957,-0.691 54.931,-26.987 89.091,-2.708Z" style="fill:#6b4e40;fill-rule:nonzero;"/><g id="svga-group-nose-single"><path id="SvgjsPath3023" d="M275.969,346.263c-2.371,5.573 16.022,11.588 23.001,11.958c7.56,0.397 28.744,-7.83 25.153,-13.478c-3.777,-5.927 -17.936,-0.772 -24.046,-0.772c-6.08,-0.003 -20.933,-5.144 -24.108,2.292Z" style="fill:#e4b3ab;fill-rule:nonzero;"/><path id="SvgjsPath3024" d="M304.972,350.472c-0.621,-2.049 5.066,-4.277 7.174,-4.574c2.973,-0.432 9.072,2.166 8.527,4.299c-0.497,1.884 -5.8,-1.439 -7.722,-1.159c-1.982,0.289 -7.39,3.354 -7.979,1.434Zm-18.584,-0.667c2.614,0 6.491,1.682 7.204,0.2c0.85,-1.768 -5.775,-3.945 -7.722,-3.704c-1.609,0.189 -7.379,3.55 -6.585,4.965c0.739,1.299 3.658,-1.461 7.103,-1.461Z" style="fill:#c5796d;fill-rule:nonzero;"/><path id="SvgjsPath3025" d="M300.199,336.813c1.639,0 4.703,-1.998 4.838,-6.021c0.543,-16.222 -2.581,-64.349 -4.838,-64.179c-2.106,0.159 -6.121,47.62 -5.26,64.179c0.214,4.055 3.41,6.021 5.26,6.021Z" style="fill:#fff;fill-opacity:0.2;fill-rule:nonzero;"/></g><g id="svga-group-hair-front"><path id="SvgjsPath4175" d="M153.556,278.261c-8.094,-6.756 -18.222,-24.136 -22.742,-48.498c-0.961,-4.992 -1.647,-10.125 -2.376,-15.56c-3.053,-22.804 -9.598,-49.38 -5.07,-76.607c5.435,-33.31 30.431,-69.371 62.197,-89.74c49.116,-31.784 173.262,-45.989 199.136,-4.15c15.009,-0.548 31.204,3.373 42.387,12.072c37.014,27.767 51.327,122.07 41.07,168.909c-6.826,31.987 -8.616,40.376 -22.313,52.918c4.892,-146.672 -2.673,-107.096 -8.926,-146.483c-7.331,-5.373 -10.063,-3.154 -21.355,-9.564c-22.458,-16.583 -21.37,-23.225 -31.544,-34.824c-9.061,10.716 -22.088,20.15 -32.149,24.507c2.549,-4.176 4.723,-8.861 6.162,-11.874l-1.204,-1.007c-8.449,6.107 -25.518,14.79 -36.008,15.722c5.635,-6.926 4.976,-6.054 7.228,-10.274c-8.413,5.174 -17.353,8.686 -28.63,9.674c10.624,-5.248 15.387,-8.839 23.627,-15.705l-0.753,-1.399c-57.216,17.38 -70.789,21.316 -112.739,28.758c-35.132,4.393 -22.269,0.68 -35.013,0.68c-20.501,0 -23.755,61.53 -22.869,82.045c2.284,57.348 -0.654,46.181 1.884,70.4Z" style="fill:#a68469;fill-rule:nonzero;"/><path id="SvgjsPath4176" d="M468.158,224.687c-6.826,31.987 -8.616,40.376 -22.313,52.918c4.892,-146.672 -2.673,-107.096 -8.926,-146.483c-7.331,-5.373 -10.063,-3.154 -21.355,-9.564c-22.458,-16.583 -21.37,-23.225 -31.544,-34.824c-9.061,10.716 -22.088,20.15 -32.149,24.507c2.549,-4.176 4.723,-8.861 6.162,-11.874l-1.204,-1.007c-8.449,6.107 -25.518,14.79 -36.008,15.722c5.635,-6.926 4.976,-6.054 7.228,-10.274c-8.413,5.174 -17.353,8.686 -28.63,9.674c10.624,-5.248 15.387,-8.839 23.627,-15.705l-0.753,-1.399c-57.216,17.38 -70.789,21.316 -112.739,28.758c-35.132,4.393 -22.269,0.68 -35.013,0.68c-20.501,0 -23.755,61.53 -22.869,82.045c2.284,57.351 -0.654,46.181 1.884,70.402c-8.094,-6.755 -18.222,-24.135 -22.742,-48.497c-0.961,-4.992 -1.647,-10.125 -2.376,-15.56c-3.053,-22.804 -9.598,-49.38 -5.07,-76.607c4.293,-26.314 37.063,-65.016 59.465,-85.668c-68.85,64.125 -48.6,135.68 -37.125,193.049c-3.378,-50.63 -13.149,-132.264 32.751,-134.964c62.1,0 131.946,-8.816 175.146,-52.016c-2.7,18.9 -5.047,22.316 -18.547,35.816c10.8,-8.1 24.3,-13.5 29.7,-27c-2.7,10.8 -2.7,18.9 -10.8,27c8.1,-5.4 16.2,-13.5 24.3,-21.6c0,8.1 -5.4,16.2 -8.1,24.3c5.4,-13.5 21.6,-21.6 24.3,-35.1c-8.1,35.1 33.397,53.959 46.222,61.384c17.55,24.3 18.225,75.6 14.175,118.125c14.85,-48.6 8.1,-131.625 -35.775,-189c47.925,35.1 57.998,132.033 49.078,172.762Zm-275.203,-136.312c32.959,-0.969 57.145,-6.31 92.475,-26.325c-33.985,14.893 -55.491,22 -92.475,26.325Zm89.775,-11.475c17.442,-7.239 29.578,-22.942 49.275,-27.675c-18.152,6.299 -30.775,22.1 -49.275,27.675Zm-104.625,10.125c12.498,-22.475 39.204,-41.099 72.9,-43.875c-27.421,5.098 -56.787,20.839 -72.9,43.875Z" style="fill:#976f50;fill-rule:nonzero;"/><path id="SvgjsPath4177" d="M263.83,34.416c35.329,-15.104 67.489,-13.562 101.25,5.359c-35.432,-15.133 -62.516,-12.236 -62.516,-12.236c-6.448,0.505 -16.756,0.256 -38.734,6.877Zm139.05,21.559c11.175,4.304 15.838,10.843 22.634,20.28c9.949,16.076 12.733,23.039 18.53,39.12c-5.63,-23.096 -18.257,-53.171 -41.164,-59.4Zm-63.45,-0.675c-19.211,16.208 -33.14,24.94 -71.55,37.8c30.353,-7.209 49.699,-15.711 71.55,-37.8Zm62.1,16.875c5.581,18.997 15.865,29.584 31.725,39.15c-14.742,-11.089 -24.381,-21.381 -31.725,-39.15Zm-213.3,-10.125c0,0 -1.312,0.972 -3.475,2.571c-24.692,17.493 -43.994,50.922 -44.45,93.279c5.386,-42.141 22.086,-71.798 47.925,-95.85Zm12.825,12.15c20.944,-10.948 30.615,-11.035 65.475,-16.875c-30.086,2.098 -44.969,3.532 -65.475,16.875Zm56.829,11.418c-12.325,6.183 -41.247,13.109 -41.247,12.798c-10.144,2.252 -27.729,6.159 -27.729,6.159c6.809,-0.861 18.492,-2.227 28.128,-4.296c0,0.365 23.749,-5.359 30.723,-8.961c7.658,-3.612 5.063,-2.195 12.699,-6.993c-0.003,0 -0.978,0.492 -2.574,1.293Z" style="fill:#b59a85;fill-rule:nonzero;"/><path id="SvgjsPath4178" d="M427.587,55.138c-11.418,-8.88 -27.872,-12.801 -42.446,-12.258c-12.45,-20.126 -51.708,-25.914 -75.519,-26.163c-35.921,-0.372 -92.675,9.863 -124.497,30.456c-29.614,18.987 -56.762,54.772 -62.559,90.288c-3.467,20.847 -0.481,42.447 3.051,63.126c1.728,9.99 2.619,20.061 4.401,29.322c5.122,27.613 16.996,44.89 24.543,50.139c-2.876,-26.608 0.262,-13.495 -2.079,-72.225c-1.088,-25.194 3.523,-82.928 22.923,-81.162c13.184,0.932 2.738,3.216 34.29,-0.732c41.437,-7.349 54.988,-11.21 112.833,-28.779c-9.064,7.555 -13.778,10.984 -25.92,16.794c-0.027,-0.027 -0.027,0 -0.027,0c-0.378,0.189 -0.783,0.378 -1.161,0.54c10.041,-0.065 22.534,-3.523 30.507,-8.424c-1.099,2.058 -4.406,5.797 -6.855,8.91c10.379,0 28.998,-9.282 38.232,-15.957c-1.296,2.7 -4.328,9.348 -7.59,14.067c3.081,-1.539 10.46,-3.545 25.191,-16.011c2.997,-2.511 6.426,-5.913 9.126,-9.099c9.042,10.309 8.5,17.593 31.131,34.29c11.227,6.372 14.261,4.388 21.006,9.315c5.956,39.01 13.862,-2.146 8.802,147.906c15.12,-13.392 16.943,-21.67 23.976,-54.621c10.014,-45.719 -3.615,-141.404 -41.359,-169.722Zm36.934,169.155c-5.983,33.172 -6.486,38.772 -18.576,51.894c2.198,-29.16 4.131,-55.239 3.561,-84.618c-1.199,-43.365 -6.966,-35.229 -11.07,-61.344c-7.771,-5.457 -11.537,-4.468 -18.684,-7.695c-1.242,-0.459 -2.268,-1.242 -3.429,-1.836c-22.658,-15.725 -22.675,-23.231 -31.941,-33.129c2.622,-3.008 4.895,-6.456 5.643,-7.938c-4.074,6.113 -21.538,22.245 -38.097,31.401c2.859,-4.525 5.033,-8.923 6.588,-12.906c4.685,-3.272 7.884,-6.366 10.584,-9.045c-9.231,7.668 -33.007,21.492 -47.925,24.489c0.47,-0.483 5.063,-4.93 6.793,-8.3c3.659,-1.463 13.543,-7.503 17.021,-11.348c-17.021,11.348 -36.382,18.144 -43.143,19.267c8.273,-3.102 19.008,-12.773 24.516,-17.172c5.321,-4.249 6.353,-5.956 11.877,-11.556c-3.629,2.533 -9.288,8.082 -16.351,11.062c-4.177,1.763 -118.503,33.745 -138.386,28.55c-3.99,-0.999 -8.502,-2.208 -12.474,-1.053c-31.86,13.705 -20.145,101.612 -19.71,128.601c0.367,22.742 1.998,26.703 1.998,26.703c-20.928,-19.872 -21.84,-63.596 -24.03,-78.786c-2.775,-20.131 -5.192,-41.502 -1.485,-61.479c6.048,-34.128 32.163,-68.599 60.102,-86.562c41.766,-27.108 166.304,-50.039 197.208,-7.641c76.723,0 87.485,126.295 79.41,180.441Z" style="fill:#784b28;fill-rule:nonzero;"/></g><g id="svga-group-glasses-single"><path id="SvgjsPath4269" d="M417.732,304.686c-6.372,5.94 -16.821,8.208 -36.612,8.208c-26.406,0 -43.686,-2.943 -55.107,-25.677c-8.883,-17.658 -12.474,-36.612 -8.154,-43.146c5.967,-9.018 23.139,-15.147 42.309,-16.956c33.291,15.822 56.673,47.547 57.564,77.571Zm-193.346,-78.111c-20.628,0.567 -40.743,6.345 -49.329,19.035c-5.886,8.667 -4.563,33.885 -0.594,45.738c5.4,16.173 13.689,21.546 44.334,21.546c26.406,0 43.686,-2.943 55.107,-25.677c1.134,-2.268 2.187,-4.563 3.159,-6.858c-8.721,-21.978 -27.972,-42.282 -52.677,-53.784Z" style="fill:#fff;fill-opacity:0.2;fill-rule:nonzero;"/><path id="SvgjsPath4270" d="M425.454,291.375c-1.917,5.724 -4.212,10.071 -7.722,13.338c-0.891,-30.024 -24.273,-61.749 -57.591,-77.598c25.299,-2.403 53.973,2.673 64.719,18.522c5.886,8.667 4.563,33.858 0.594,45.738Zm-143.369,-47.304c-7.533,-11.421 -32.994,-18.171 -57.699,-17.469c24.732,11.475 43.956,31.779 52.704,53.784c6.507,-15.498 8.748,-30.618 4.995,-36.315Z" style="fill:#fff;fill-opacity:0.4;fill-rule:nonzero;"/><path id="SvgjsPath4271" d="M439.791,233.163c-27.486,-14.742 -97.578,-18.927 -122.85,0.405c-2.16,1.269 -11.42,-1.431 -16.982,-1.431c-5.265,0 -14.634,2.835 -16.983,1.431c-25.272,-19.332 -95.364,-15.147 -122.85,-0.405c-3.942,2.133 -4.374,12.177 -0.945,13.716c2.457,1.107 4.077,2.646 3.942,5.346c-0.864,15.174 3.321,34.884 5.157,40.311c2.349,6.993 6.588,20.007 25.083,23.22c15.741,2.727 44.361,3.996 59.238,-0.459c26.973,-8.046 38.448,-48.708 38.934,-62.559l0.027,0.054c1.08,-4.86 15.714,-4.86 16.821,0l0.027,-0.054c0.459,13.851 11.96,54.513 38.933,62.559c14.877,4.455 43.497,3.186 59.238,0.459c18.495,-3.213 22.734,-16.227 25.083,-23.22c1.836,-5.454 6.021,-25.137 5.184,-40.311c-0.135,-2.7 1.512,-4.239 3.942,-5.346c3.375,-1.539 2.943,-11.583 -0.999,-13.716Zm-190.025,74.925c-13.662,4.077 -38.664,4.347 -53.217,1.809c-12.258,-2.133 -17.388,-8.802 -20.79,-18.981c-3.996,-11.88 -5.049,-36.477 0.432,-44.55c18.252,-26.946 91.449,-21.735 104.76,-1.566c5.94,9.045 -5.589,55.647 -31.185,63.288Zm174.392,-17.145c-3.402,10.179 -8.559,16.848 -20.79,18.981c-14.553,2.538 -39.555,2.268 -53.217,-1.809c-25.596,-7.641 -37.125,-54.243 -31.185,-63.288c13.311,-20.169 86.508,-25.38 104.76,1.566c5.481,8.046 4.428,32.67 0.432,44.55Z" style="fill:#4d1f1f;fill-rule:nonzero;"/><path id="SvgjsPath4272" d="M350.124,307.98c7.533,2.241 18.522,3.348 29.295,3.429c-33.858,3.294 -41.553,-9.18 -46.224,-13.932c-9.504,-9.693 -15.363,-24.165 -15.795,-44.955c0.081,16.416 11.61,49.167 32.724,55.458Zm-67.202,-74.52c-25.272,-19.332 -95.364,-15.174 -122.85,-0.405c62.748,-17.604 99.198,-8.505 122.85,0.405Zm-86.427,76.356c-12.258,-2.133 -17.388,-8.802 -20.79,-18.981c-3.564,-10.611 -4.779,-31.374 -1.08,-41.445c-4.941,11.394 -3.024,33.453 0.702,44.55c4.32,12.96 12.258,19.386 46.818,17.442c-9.369,0.189 -18.711,-0.378 -25.65,-1.566Zm246.482,-69.39c-0.108,-3.051 -1.215,-6.264 -3.24,-7.371c-26.946,-14.472 -94.878,-18.738 -121.311,-0.675c35.532,-14.229 86.751,-16.227 124.551,8.046Z" style="fill:#5c2e2e;fill-rule:nonzero;"/></g></g></g></g><defs><linearGradient id="_Linear1" x1="0" y1="0" x2="1" y2="0" gradientUnits="userSpaceOnUse" gradientTransform="matrix(8.26636e-15,-135,135,8.26636e-15,299.959,498.815)"><stop offset="0" style="stop-color:#e4b3ab;stop-opacity:0.8"/><stop offset="0.7" style="stop-color:#c5796d;stop-opacity:1"/><stop offset="1" style="stop-color:#c5796d;stop-opacity:1"/></linearGradient><radialGradient id="_Radial2" cx="0" cy="0" r="1" gradientUnits="userSpaceOnUse" gradientTransform="matrix(48.3149,0.88434,0.802188,-34.0108,237.267,255.289)"><stop offset="0" style="stop-color:#e4b3ab;stop-opacity:1"/><stop offset="0.7" style="stop-color:#e4b3ab;stop-opacity:0.298039"/><stop offset="1" style="stop-color:#f3d4cf;stop-opacity:0"/></radialGradient><radialGradient id="_Radial3" cx="0" cy="0" r="1" gradientUnits="userSpaceOnUse" gradientTransform="matrix(-36.7203,0.0138672,-0.0138672,32.3036,228.885,257.168)"><stop offset="0" style="stop-color:#fff;stop-opacity:1"/><stop offset="0.54" style="stop-color:#fdfefe;stop-opacity:1"/><stop offset="0.74" style="stop-color:#f6f8f9;stop-opacity:1"/><stop offset="0.88" style="stop-color:#eaeff2;stop-opacity:1"/><stop offset="0.99" style="stop-color:#d9e3e8;stop-opacity:1"/><stop offset="1" style="stop-color:#d8e2e7;stop-opacity:1"/></radialGradient><radialGradient id="_Radial4" cx="0" cy="0" r="1" gradientUnits="userSpaceOnUse" gradientTransform="matrix(15.4875,-4.00093,3.95253,15.5036,230.23,261.944)"><stop offset="0" style="stop-color:#fff;stop-opacity:0.7"/><stop offset="1" style="stop-color:#fff;stop-opacity:0"/></radialGradient><radialGradient id="_Radial5" cx="0" cy="0" r="1" gradientUnits="userSpaceOnUse" gradientTransform="matrix(15.986,0.142863,-0.177443,15.986,230.231,261.962)"><stop offset="0" style="stop-color:#fff;stop-opacity:0.4"/><stop offset="1" style="stop-color:#fff;stop-opacity:0"/></radialGradient><linearGradient id="_Linear6" x1="0" y1="0" x2="1" y2="0" gradientUnits="userSpaceOnUse" gradientTransform="matrix(2.5272,-3.0132,3.0132,2.5272,221.443,273.414)"><stop offset="0" style="stop-color:#fff;stop-opacity:0.5"/><stop offset="1" style="stop-color:#fff;stop-opacity:0"/></linearGradient><linearGradient id="_Linear7" x1="0" y1="0" x2="1" y2="0" gradientUnits="userSpaceOnUse" gradientTransform="matrix(-2.0223,2.4111,-2.4111,-2.0223,233.706,257.29)"><stop offset="0" style="stop-color:#fff;stop-opacity:0.5"/><stop offset="1" style="stop-color:#fff;stop-opacity:0"/></linearGradient><linearGradient id="_Linear8" x1="0" y1="0" x2="1" y2="0" gradientUnits="userSpaceOnUse" gradientTransform="matrix(-4.6602,5.5539,-5.5539,-4.6602,240.251,250.61)"><stop offset="0" style="stop-color:#fff;stop-opacity:0.75"/><stop offset="1" style="stop-color:#fff;stop-opacity:0"/></linearGradient><radialGradient id="_Radial9" cx="0" cy="0" r="1" gradientUnits="userSpaceOnUse" gradientTransform="matrix(48.3149,0.88434,0.802188,-34.0108,237.267,255.289)"><stop offset="0" style="stop-color:#e4b3ab;stop-opacity:1"/><stop offset="0.7" style="stop-color:#e4b3ab;stop-opacity:0.298039"/><stop offset="1" style="stop-color:#f3d4cf;stop-opacity:0"/></radialGradient><radialGradient id="_Radial10" cx="0" cy="0" r="1" gradientUnits="userSpaceOnUse" gradientTransform="matrix(68.746,-3.12681,3.60931,59.7979,223.673,309.051)"><stop offset="0" style="stop-color:#000;stop-opacity:0"/><stop offset="0.9" style="stop-color:#000;stop-opacity:0"/><stop offset="1" style="stop-color:#000;stop-opacity:0.2"/></radialGradient><radialGradient id="_Radial11" cx="0" cy="0" r="1" gradientUnits="userSpaceOnUse" gradientTransform="matrix(-48.3149,0.88434,-0.802188,-34.0108,361.574,255.289)"><stop offset="0" style="stop-color:#e4b3ab;stop-opacity:1"/><stop offset="0.7" style="stop-color:#e4b3ab;stop-opacity:0.298039"/><stop offset="1" style="stop-color:#f3d4cf;stop-opacity:0"/></radialGradient><radialGradient id="_Radial12" cx="0" cy="0" r="1" gradientUnits="userSpaceOnUse" gradientTransform="matrix(36.7232,0.0138683,0.0138683,32.3061,369.951,257.168)"><stop offset="0" style="stop-color:#fff;stop-opacity:1"/><stop offset="0.54" style="stop-color:#fdfefe;stop-opacity:1"/><stop offset="0.74" style="stop-color:#f6f8f9;stop-opacity:1"/><stop offset="0.88" style="stop-color:#eaeff2;stop-opacity:1"/><stop offset="0.99" style="stop-color:#d9e3e8;stop-opacity:1"/><stop offset="1" style="stop-color:#d8e2e7;stop-opacity:1"/></radialGradient><radialGradient id="_Radial13" cx="0" cy="0" r="1" gradientUnits="userSpaceOnUse" gradientTransform="matrix(15.4877,-4.00099,3.95259,15.5038,369.279,261.944)"><stop offset="0" style="stop-color:#fff;stop-opacity:0.7"/><stop offset="1" style="stop-color:#fff;stop-opacity:0"/></radialGradient><radialGradient id="_Radial14" cx="0" cy="0" r="1" gradientUnits="userSpaceOnUse" gradientTransform="matrix(15.9865,0.142867,-0.177449,15.9865,369.281,261.962)"><stop offset="0" style="stop-color:#fff;stop-opacity:0.4"/><stop offset="1" style="stop-color:#fff;stop-opacity:0"/></radialGradient><linearGradient id="_Linear15" x1="0" y1="0" x2="1" y2="0" gradientUnits="userSpaceOnUse" gradientTransform="matrix(2.5272,-3.0132,3.0132,2.5272,360.492,273.414)"><stop offset="0" style="stop-color:#fff;stop-opacity:0.5"/><stop offset="1" style="stop-color:#fff;stop-opacity:0"/></linearGradient><linearGradient id="_Linear16" x1="0" y1="0" x2="1" y2="0" gradientUnits="userSpaceOnUse" gradientTransform="matrix(-2.0223,2.4111,-2.4111,-2.0223,372.756,257.29)"><stop offset="0" style="stop-color:#fff;stop-opacity:0.5"/><stop offset="1" style="stop-color:#fff;stop-opacity:0"/></linearGradient><linearGradient id="_Linear17" x1="0" y1="0" x2="1" y2="0" gradientUnits="userSpaceOnUse" gradientTransform="matrix(-4.6602,5.5539,-5.5539,-4.6602,379.301,250.61)"><stop offset="0" style="stop-color:#fff;stop-opacity:0.75"/><stop offset="1" style="stop-color:#fff;stop-opacity:0"/></linearGradient><radialGradient id="_Radial18" cx="0" cy="0" r="1" gradientUnits="userSpaceOnUse" gradientTransform="matrix(-48.3149,0.88434,-0.802188,-34.0108,361.574,255.289)"><stop offset="0" style="stop-color:#e4b3ab;stop-opacity:1"/><stop offset="0.7" style="stop-color:#e4b3ab;stop-opacity:0.298039"/><stop offset="1" style="stop-color:#f3d4cf;stop-opacity:0"/></radialGradient><radialGradient id="_Radial19" cx="0" cy="0" r="1" gradientUnits="userSpaceOnUse" gradientTransform="matrix(-68.746,-3.12681,-3.60931,59.7979,375.166,309.051)"><stop offset="0" style="stop-color:#000;stop-opacity:0"/><stop offset="0.9" style="stop-color:#000;stop-opacity:0"/><stop offset="1" style="stop-color:#000;stop-opacity:0.2"/></radialGradient><radialGradient id="_Radial20" cx="0" cy="0" r="1" gradientUnits="userSpaceOnUse" gradientTransform="matrix(110.7,0,0,110.7,299.959,342.216)"><stop offset="0" style="stop-color:#fff4f3;stop-opacity:0.498039"/><stop offset="0.9" style="stop-color:#f3d4cf;stop-opacity:0"/><stop offset="1" style="stop-color:#f3d4cf;stop-opacity:0"/></radialGradient><radialGradient id="_Radial21" cx="0" cy="0" r="1" gradientUnits="userSpaceOnUse" gradientTransform="matrix(99.9,0,0,99.9,299.959,180.216)"><stop offset="0" style="stop-color:#fff4f3;stop-opacity:0.498039"/><stop offset="0.9" style="stop-color:#f3d4cf;stop-opacity:0"/><stop offset="1" style="stop-color:#f3d4cf;stop-opacity:0"/></radialGradient></defs></svg>