<svg clip-rule="evenodd" fill-rule="evenodd" stroke-linejoin="round" stroke-miterlimit="1.41421" viewBox="0 0 39 39" xmlns="http://www.w3.org/2000/svg"><g fill="#fff" fill-rule="nonzero"><path d="m19.177 0c-10.591 0-19.177 8.586-19.177 19.177 0 10.59 8.586 19.177 19.177 19.177 10.59 0 19.177-8.587 19.177-19.177 0-10.591-8.587-19.177-19.177-19.177zm0 34.758c-8.606 0-15.581-6.975-15.581-15.581s6.975-15.581 15.581-15.581 15.581 6.975 15.581 15.581-6.975 15.581-15.581 15.581z"/><path d="m25.17 9.588-5.993 5.993-5.993-5.993-3.596 3.596 5.993 5.993-5.993 5.993 3.596 3.595 5.993-5.992 5.993 5.992 3.595-3.595-5.992-5.993 5.992-5.993z"/></g></svg>