<?xml version="1.0" encoding="UTF-8" standalone="no"?><!DOCTYPE svg PUBLIC "-//W3C//DTD SVG 1.1//EN" "http://www.w3.org/Graphics/SVG/1.1/DTD/svg11.dtd"><svg width="100%" height="100%" viewBox="0 0 36 36" version="1.1" xmlns="http://www.w3.org/2000/svg" xmlns:xlink="http://www.w3.org/1999/xlink" xml:space="preserve" xmlns:serif="http://www.serif.com/" style="fill-rule:evenodd;clip-rule:evenodd;stroke-linejoin:round;stroke-miterlimit:1.41421;"><clipPath id="_clip1"><rect x="0" y="0" width="35.086" height="35.086"/></clipPath><g clip-path="url(#_clip1)"><path d="M17.543,0.434c-9.688,0 -17.543,7.855 -17.543,17.543c0,7.752 5.026,14.326 11.997,16.646c0.877,0.163 1.2,-0.381 1.2,-0.844c0,-0.419 -0.018,-1.8 -0.024,-3.265c-4.882,1.061 -5.91,-2.07 -5.91,-2.07c-0.798,-2.029 -1.947,-2.568 -1.947,-2.568c-1.593,-1.09 0.12,-1.066 0.12,-1.066c1.761,0.123 2.689,1.807 2.689,1.807c1.565,2.682 4.105,1.906 5.105,1.458c0.157,-1.133 0.611,-1.907 1.114,-2.346c-3.897,-0.443 -7.993,-1.947 -7.993,-8.671c0,-1.914 0.686,-3.48 1.806,-4.708c-0.182,-0.443 -0.782,-2.226 0.169,-4.642c0,0 1.474,-0.472 4.827,1.798c1.399,-0.388 2.899,-0.583 4.39,-0.59c1.491,0.007 2.993,0.202 4.394,0.59c3.349,-2.27 4.82,-1.798 4.82,-1.798c0.954,2.416 0.356,4.201 0.174,4.642c1.125,1.228 1.804,2.794 1.804,4.708c0,6.739 -4.105,8.221 -8.01,8.656c0.629,0.543 1.191,1.611 1.191,3.247c0,2.347 -0.02,4.237 -0.02,4.814c0,0.467 0.316,1.013 1.206,0.842c6.967,-2.323 11.986,-8.897 11.986,-16.644c0,-9.688 -7.855,-17.543 -17.543,-17.543l-0.002,0.004Z" style="fill:#fff;fill-rule:nonzero;"/></g></svg>