<svg clip-rule="evenodd" fill-rule="evenodd" stroke-linejoin="round" stroke-miterlimit="1.41421" viewBox="0 0 36 36" xmlns="http://www.w3.org/2000/svg" xmlns:xlink="http://www.w3.org/1999/xlink"><clipPath id="a"><path clip-rule="evenodd" d="m0 0h35.086v35.086h-35.086z"/></clipPath><g clip-path="url(#a)"><path d="m17.543.434c-9.688 0-17.543 7.855-17.543 17.543 0 7.752 5.026 14.326 11.997 16.646.877.163 1.2-.381 1.2-.844 0-.419-.018-1.8-.024-3.265-4.882 1.061-5.91-2.07-5.91-2.07-.798-2.029-1.947-2.568-1.947-2.568-1.593-1.09.12-1.066.12-1.066 1.761.123 2.689 1.807 2.689 1.807 1.565 2.682 4.105 1.906 5.105 1.458.157-1.133.611-1.907 1.114-2.346-3.897-.443-7.993-1.947-7.993-8.671 0-1.914.686-3.48 1.806-4.708-.182-.443-.782-2.226.169-4.642 0 0 1.474-.472 4.827 1.798 1.399-.388 2.899-.583 4.39-.59 1.491.007 2.993.202 4.394.59 3.349-2.27 4.82-1.798 4.82-1.798.954 2.416.356 4.201.174 4.642 1.125 1.228 1.804 2.794 1.804 4.708 0 6.739-4.105 8.221-8.01 8.656.629.543 1.191 1.611 1.191 3.247 0 2.347-.02 4.237-.02 4.814 0 .467.316 1.013 1.206.842 6.967-2.323 11.986-8.897 11.986-16.644 0-9.688-7.855-17.543-17.543-17.543l-.002.004z" fill="#fff" fill-rule="nonzero"/></g></svg>