<svg clip-rule="evenodd" fill-rule="evenodd" stroke-linejoin="round" stroke-miterlimit="1.41421" viewBox="0 0 39 39" xmlns="http://www.w3.org/2000/svg"><g fill="#fff"><path d="m19.177 0c10.584 0 19.177 8.658 19.177 19.323s-8.593 19.324-19.177 19.324-19.177-8.659-19.177-19.324 8.593-19.323 19.177-19.323zm0 6.303c7.132 0 12.921 5.834 12.921 13.02s-5.789 13.02-12.921 13.02-12.922-5.834-12.922-13.02 5.79-13.02 12.922-13.02z"/><path d="m30.552 5.323h-22.75c-1.444 0-2.625 1.182-2.625 2.625v22.75c0 1.444 1.181 2.625 2.625 2.625h22.75c1.444 0 2.625-1.181 2.625-2.625v-22.75c0-1.443-1.181-2.625-2.625-2.625zm-14.875 22.75h-3.5v-12.25h3.5zm-1.75-14c-.968 0-1.75-.782-1.75-1.75 0-.967.782-1.75 1.75-1.75s1.75.783 1.75 1.75c0 .968-.782 1.75-1.75 1.75zm14 14h-3.5v-7c0-.967-.782-1.75-1.75-1.75s-1.75.783-1.75 1.75v7h-3.5v-12.25h3.5v2.172c.721-.99 1.827-2.172 3.062-2.172 2.177 0 3.938 1.959 3.938 4.375z" fill-rule="nonzero"/></g></svg>