<?xml version="1.0" encoding="UTF-8" standalone="no"?><!DOCTYPE svg PUBLIC "-//W3C//DTD SVG 1.1//EN" "http://www.w3.org/Graphics/SVG/1.1/DTD/svg11.dtd"><svg width="100%" height="100%" viewBox="0 0 39 39" version="1.1" xmlns="http://www.w3.org/2000/svg" xmlns:xlink="http://www.w3.org/1999/xlink" xml:space="preserve" xmlns:serif="http://www.serif.com/" style="fill-rule:evenodd;clip-rule:evenodd;stroke-linejoin:round;stroke-miterlimit:1.41421;"><g><path d="M19.177,0c10.584,0 19.177,8.658 19.177,19.323c0,10.665 -8.593,19.324 -19.177,19.324c-10.584,0 -19.177,-8.659 -19.177,-19.324c0,-10.665 8.593,-19.323 19.177,-19.323Zm0,6.303c7.132,0 12.921,5.834 12.921,13.02c0,7.186 -5.789,13.02 -12.921,13.02c-7.132,0 -12.922,-5.834 -12.922,-13.02c0,-7.186 5.79,-13.02 12.922,-13.02Z" style="fill:#fff;"/><path d="M30.552,5.323l-22.75,0c-1.444,0 -2.625,1.182 -2.625,2.625l0,22.75c0,1.444 1.181,2.625 2.625,2.625l22.75,0c1.444,0 2.625,-1.181 2.625,-2.625l0,-22.75c0,-1.443 -1.181,-2.625 -2.625,-2.625Zm-14.875,22.75l-3.5,0l0,-12.25l3.5,0l0,12.25Zm-1.75,-14c-0.968,0 -1.75,-0.782 -1.75,-1.75c0,-0.967 0.782,-1.75 1.75,-1.75c0.968,0 1.75,0.783 1.75,1.75c0,0.968 -0.782,1.75 -1.75,1.75Zm14,14l-3.5,0l0,-7c0,-0.967 -0.782,-1.75 -1.75,-1.75c-0.968,0 -1.75,0.783 -1.75,1.75l0,7l-3.5,0l0,-12.25l3.5,0l0,2.172c0.721,-0.99 1.827,-2.172 3.062,-2.172c2.177,0 3.938,1.959 3.938,4.375l0,7.875Z" style="fill:#fff;fill-rule:nonzero;"/></g></svg>