<?xml version="1.0" encoding="UTF-8" standalone="no"?><!DOCTYPE svg PUBLIC "-//W3C//DTD SVG 1.1//EN" "http://www.w3.org/Graphics/SVG/1.1/DTD/svg11.dtd"><svg width="100%" height="100%" viewBox="0 0 36 36" version="1.1" xmlns="http://www.w3.org/2000/svg" xmlns:xlink="http://www.w3.org/1999/xlink" xml:space="preserve" xmlns:serif="http://www.serif.com/" style="fill-rule:evenodd;clip-rule:evenodd;stroke-linejoin:round;stroke-miterlimit:1.41421;"><path d="M17.543,0c-9.688,0 -17.543,7.855 -17.543,17.543c0,9.688 7.855,17.543 17.543,17.543c9.688,0 17.543,-7.855 17.543,-17.543c0,-9.688 -7.855,-17.543 -17.543,-17.543Zm-8.772,8.771l17.543,0c0.314,0 0.617,0.068 0.897,0.193l-9.668,11.278l-9.668,-11.278c0.278,-0.127 0.583,-0.193 0.896,-0.193Zm-2.192,15.351l0,-13.158c0,-0.046 0.002,-0.092 0.004,-0.138l6.429,7.502l-6.359,6.359c-0.05,-0.182 -0.074,-0.372 -0.074,-0.565Zm19.735,2.192l-17.543,0c-0.192,0 -0.383,-0.026 -0.565,-0.074l6.241,-6.241l3.098,3.614l3.099,-3.614l6.241,6.241c-0.182,0.05 -0.373,0.074 -0.566,0.074l-0.005,0Zm2.193,-2.192c0,0.193 -0.026,0.383 -0.074,0.565l-6.36,-6.359l6.43,-7.502c0.002,0.046 0.004,0.092 0.004,0.138l0,13.158Z" style="fill:#fff;fill-rule:nonzero;"/></svg>