<svg clip-rule="evenodd" fill-rule="evenodd" stroke-linejoin="round" stroke-miterlimit="1.41421" viewBox="0 0 36 36" xmlns="http://www.w3.org/2000/svg"><path d="m17.543 0c-9.688 0-17.543 7.855-17.543 17.543s7.855 17.543 17.543 17.543 17.543-7.855 17.543-17.543-7.855-17.543-17.543-17.543zm-8.772 8.771h17.543c.314 0 .617.068.897.193l-9.668 11.278-9.668-11.278c.278-.127.583-.193.896-.193zm-2.192 15.351v-13.158c0-.046.002-.092.004-.138l6.429 7.502-6.359 6.359c-.05-.182-.074-.372-.074-.565zm19.735 2.192h-17.543c-.192 0-.383-.026-.565-.074l6.241-6.241 3.098 3.614 3.099-3.614 6.241 6.241c-.182.05-.373.074-.566.074zm2.193-2.192c0 .193-.026.383-.074.565l-6.36-6.359 6.43-7.502c.002.046.004.092.004.138z" fill="#fff" fill-rule="nonzero"/></svg>