<svg xmlns="http://www.w3.org/2000/svg" xmlns:xlink="http://www.w3.org/1999/xlink" version="1.1" x="0px" y="0px" viewBox="0 0 100 125" enable-background="new 0 0 100 100" xml:space="preserve"><g display="none"><rect x="-454.249" y="-157.244" display="inline" fill="#000000" width="1345.273" height="1337.592"/></g><g><g><path d="M18.459,66.719C24.466,78.005,36.348,85.709,50,85.709s25.534-7.704,31.541-18.99c7.635-0.795,13.609-7.267,13.609-15.11    v-3.217c0-7.843-5.973-14.315-13.609-15.11C75.534,21.995,63.652,14.291,50,14.291s-25.534,7.704-31.541,18.99    c-7.635,0.795-13.609,7.267-13.609,15.11v3.217C4.851,59.451,10.824,65.923,18.459,66.719z M92.644,48.392v3.217    c0,5.991-4.179,11.014-9.772,12.336c1.825-4.286,2.837-9,2.837-13.945s-1.012-9.658-2.837-13.945    C88.465,37.378,92.644,42.4,92.644,48.392z M50,16.797c18.308,0,33.203,14.895,33.203,33.203S68.308,83.203,50,83.203    S16.797,68.308,16.797,50S31.692,16.797,50,16.797z M7.356,48.392c0-5.991,4.179-11.014,9.772-12.336    c-1.825,4.286-2.837,9-2.837,13.945s1.012,9.658,2.837,13.945c-5.593-1.323-9.772-6.345-9.772-12.336V48.392z"/><path d="M50,62.759c14.094,0,25.519-11.425,25.519-25.519H24.481C24.481,51.334,35.906,62.759,50,62.759z M60.072,47.844    c2.848,0,5.721,1.768,5.721,5.721H54.352C54.352,49.612,57.225,47.844,60.072,47.844z M39.928,47.844    c2.847,0,5.72,1.768,5.72,5.721H34.207C34.207,49.612,37.08,47.844,39.928,47.844z"/></g></g><text x="0" y="115" fill="#000000" font-size="5px" font-weight="bold" font-family="'Helvetica Neue', Helvetica, Arial-Unicode, Arial, Sans-serif">Created by Oksana Latysheva</text><text x="0" y="120" fill="#000000" font-size="5px" font-weight="bold" font-family="'Helvetica Neue', Helvetica, Arial-Unicode, Arial, Sans-serif">from the Noun Project</text></svg>