<svg clip-rule="evenodd" fill-rule="evenodd" stroke-linejoin="round" stroke-miterlimit="1.41421" viewBox="0 0 45 35" xmlns="http://www.w3.org/2000/svg"><g fill="#fff" fill-rule="nonzero"><path d="m6.662 25.664c2.94 5.525 8.757 9.296 15.439 9.296 6.683 0 12.499-3.771 15.44-9.296 3.737-.389 6.662-3.557 6.662-7.397v-1.574c0-3.839-2.924-7.008-6.662-7.397-2.941-5.525-8.757-9.296-15.44-9.296-6.682 0-12.499 3.771-15.439 9.296-3.738.389-6.662 3.557-6.662 7.396v1.575c0 3.839 2.924 7.007 6.662 7.397zm36.314-8.971v1.574c0 2.933-2.046 5.392-4.784 6.039.894-2.098 1.389-4.406 1.389-6.826 0-2.421-.495-4.728-1.389-6.826 2.738.647 4.784 3.106 4.784 6.039zm-20.875-15.466c8.962 0 16.253 7.291 16.253 16.253s-7.291 16.253-16.253 16.253-16.253-7.291-16.253-16.253 7.291-16.253 16.253-16.253zm-20.874 15.466c0-2.933 2.045-5.392 4.783-6.039-.893 2.098-1.389 4.406-1.389 6.826 0 2.421.496 4.728 1.389 6.827-2.738-.648-4.783-3.106-4.783-6.039z"/><path d="m22.101 23.725c6.899 0 12.492-5.592 12.492-12.491h-24.983c0 6.899 5.592 12.491 12.491 12.491zm4.931-7.301c1.394 0 2.8.866 2.8 2.801h-5.6c0-1.935 1.406-2.801 2.8-2.801zm-9.861 0c1.394 0 2.8.866 2.8 2.801h-5.6c0-1.935 1.406-2.801 2.8-2.801z"/></g></svg>